<svg id="Capa_1" data-name="Capa 1" xmlns="http://www.w3.org/2000/svg" viewBox="0 0 49.395 49.395"><defs><style>.cls-1{fill:#fff;}.cls-2{fill:#50ba5e;}</style></defs><title>CRIPTOS</title><path class="cls-1" d="M25.547,11.8a4.786,4.786,0,0,1,2.323,1.088,5.032,5.032,0,0,1,1.621,5.24,5.618,5.618,0,0,1,3.4-1.059,5.1,5.1,0,0,1,3.119,1.251,6.243,6.243,0,0,1,1.731,2.317,5.752,5.752,0,0,1,.5,2.82A6.078,6.078,0,0,1,37.168,26.3c-.255.373-.793,1.085-1.57,2.047l2.976,2.485L36.516,33.3,33.569,30.85l-1.34,1.6,2.952,2.465-2.034,2.433L30.2,34.884,26.85,38.9l-2.709-2.262,1.347-1.618a1.462,1.462,0,0,0-.187-2.062l-8.622-7.194a1.462,1.462,0,0,0-2.062.187l-1.348,1.618L10.56,25.305l3.345-4.013-3.131-2.61,2.034-2.434,3.122,2.607,1.344-1.61-3.131-2.61L16.2,12.168,19.347,14.8a19.209,19.209,0,0,1,1.7-1.748,5.559,5.559,0,0,1,2.091-1.132A5.46,5.46,0,0,1,25.547,11.8Zm-.294,5.162a2.361,2.361,0,0,0-1.566-.606,2.476,2.476,0,0,0-1.612.762c-.31.3-.7.735-1.994,2.277l-1.372,1.652,3.771,3.142,1.591-1.91A21.577,21.577,0,0,0,25.6,20.326a2.8,2.8,0,0,0,.522-1.815A2.252,2.252,0,0,0,25.253,16.962Zm7.357,5.115a2.735,2.735,0,0,0-1.55-.676,2.558,2.558,0,0,0-1.6.4A9.306,9.306,0,0,0,27.2,24.041L25.189,26.45l4.349,3.639,2.342-2.807a9.837,9.837,0,0,0,1.376-1.854,2.5,2.5,0,0,0-.646-3.351Z"/><path class="cls-2" d="M26.126,18.511a2.8,2.8,0,0,1-.522,1.815,21.577,21.577,0,0,1-1.533,1.953l-1.591,1.91-3.771-3.142L20.081,19.4c1.3-1.542,1.684-1.981,1.994-2.277a2.476,2.476,0,0,1,1.612-.762,2.361,2.361,0,0,1,1.566.606A2.252,2.252,0,0,1,26.126,18.511Z"/><path class="cls-2" d="M31.06,21.4a2.735,2.735,0,0,1,1.55.676,2.5,2.5,0,0,1,.646,3.351,9.837,9.837,0,0,1-1.376,1.854l-2.342,2.807L25.189,26.45,27.2,24.041A9.306,9.306,0,0,1,29.461,21.8,2.558,2.558,0,0,1,31.06,21.4Z"/><path class="cls-2" d="M36.516,33.3l2.058-2.467L35.6,28.35c.777-.962,1.315-1.674,1.57-2.047a6.078,6.078,0,0,0,1.068-2.846,5.752,5.752,0,0,0-.5-2.82,6.243,6.243,0,0,0-1.731-2.317,5.1,5.1,0,0,0-3.119-1.251,5.618,5.618,0,0,0-3.4,1.059,5.032,5.032,0,0,0-1.621-5.24A4.786,4.786,0,0,0,25.547,11.8a5.46,5.46,0,0,0-2.41.115,5.559,5.559,0,0,0-2.091,1.132,19.209,19.209,0,0,0-1.7,1.748L16.2,12.168l-2.058,2.467,3.131,2.61-1.344,1.61-3.122-2.607-2.034,2.434,3.131,2.61L10.56,25.305l2.709,2.261,1.348-1.618a1.462,1.462,0,0,1,2.062-.187L25.3,32.955a1.462,1.462,0,0,1,.187,2.062l-1.347,1.618L26.85,38.9,30.2,34.884l2.952,2.464,2.034-2.433L32.229,32.45l1.34-1.6ZM1.728,15.642A24.69,24.69,0,1,1,15.642,47.667,24.686,24.686,0,0,1,1.728,15.642Z"/></svg>