<svg id="Capa_1" data-name="Capa 1" xmlns="http://www.w3.org/2000/svg" viewBox="0 0 49.385 49.385"><defs><style>.cls-1{fill:#fff;}.cls-2{fill:#8ccc3d;}.cls-3{fill:#b8bec1;}</style></defs><title>CRIPTOS</title><path class="cls-1" d="M24.692,0A24.693,24.693,0,1,0,49.385,24.692,24.692,24.692,0,0,0,24.692,0Z"/><path class="cls-2" d="M23.639,26.718c.008-1.761.248-10.178.287-11.552a.4.4,0,0,0-.139-.317L14.284,6.5a.41.41,0,0,0-.682.3c-.019,2.948-.074,12.165.007,12.165s7.557,7.057,8.766,8.2a.409.409,0,0,0,.385.1l.573-.149A.406.406,0,0,0,23.639,26.718Z"/><path class="cls-3" d="M25.9,27.273s-.108-7.255,0-7.255a10.459,10.459,0,0,1,6.193,2.917c.092.092-4.321,4.862-4.321,4.862Z"/><path class="cls-3" d="M28.556,29.327s5.054-5.206,5.13-5.129A10.463,10.463,0,0,1,36,30.64c0,.117-5.256.333-6.31.375a.3.3,0,0,1-.274-.154Z"/><path class="cls-3" d="M28.981,32.658s7.255-.108,7.255,0a10.463,10.463,0,0,1-2.917,6.194c-.092.092-4.862-4.321-4.862-4.321Z"/><path class="cls-3" d="M26.927,35.314s5.206,5.053,5.129,5.13a10.463,10.463,0,0,1-6.442,2.317c-.13,0-.382-6.493-.382-6.493Z"/><path class="cls-3" d="M23.378,35.678a.3.3,0,0,1,.221.285c.017,1.223.093,7.03,0,7.03A10.466,10.466,0,0,1,17.4,40.077c-.083-.083,3.482-3.953,4.2-4.728a.3.3,0,0,1,.3-.084Z"/><path class="cls-3" d="M20.829,33.487a.3.3,0,0,1-.045.358c-.853.877-4.9,5.037-4.974,4.969a10.466,10.466,0,0,1-2.317-6.442c0-.117,5.257-.333,6.311-.375a.3.3,0,0,1,.273.154Z"/><path class="cls-3" d="M20.576,30.136a.3.3,0,0,1-.285.221c-1.223.017-7.03.093-7.03,0a42.964,42.964,0,0,1,.305-9.11c.016-.119,6.368,6.147,7.347,7.113a.3.3,0,0,1,.078.3Z"/></svg>