<svg id="Capa_1" data-name="Capa 1" xmlns="http://www.w3.org/2000/svg" viewBox="0 0 49.385 49.385"><defs><style>.cls-1{fill:#aa2da1;}.cls-2{fill:#fff;}</style></defs><title>bitwings</title><circle class="cls-1" cx="24.692" cy="24.692" r="24.692"/><path class="cls-2" d="M39.251,18.059c-2.457,2.6-10.631,13.649-10.714,13.566-.951-1.253-2.593-3.246-2.593-3.246,5.876-10.4,9.684-13.37,10.593-13.931A16.121,16.121,0,0,1,39.251,18.059Z"/><path class="cls-2" d="M32.632,11.571C30.308,13.3,23.913,24.3,23.913,24.408c-.434-.865-2.031-4.105-2.031-4.105,4.515-7.761,7.433-9.389,8.188-9.807A15.9,15.9,0,0,1,32.632,11.571Z"/><path class="cls-2" d="M12.787,15.548c0,.519.007,11.221,1.166,14.047,1.075,2.618,2.333.906,2.2.712a67.762,67.762,0,0,1-1.1-16.852c.712,5.9,2.722,14.194,2.722,14.194s2.139-4.147,2.2-4.147a51.285,51.285,0,0,1-2.2-11.8S25.328,32.964,29.7,33.418c2.261.442,9.169-8.363,11.177-11a16.171,16.171,0,0,1-.542,8.711c-5.478,5.6-8.192,6.13-10.505,6.453-2.463.344-4.343-2.092-4.5-2.287-5.217,6.027-8.458-1.75-8.458-1.864-8.195,4.155-4.854-16.649-4.806-16.945v0l.006-.006.655-.857h0C12.746,15.6,12.766,15.572,12.787,15.548ZM21.342,34.2c.907-.016,2.074-1.783,2.09-1.75a33.971,33.971,0,0,1-2.009-4.067L19.317,31.2S20.434,34.213,21.342,34.2Z"/></svg>