<svg id="Capa_1" data-name="Capa 1" xmlns="http://www.w3.org/2000/svg" viewBox="0 0 49.393 49.393"><defs><style>.cls-1{fill:#fff;}.cls-2{fill:#ff7006;}</style></defs><title>criptos</title><path class="cls-1" d="M35.643,17.823a4.79,4.79,0,0,1,.48,2.52,5.031,5.031,0,0,1-3.294,4.385,5.618,5.618,0,0,1,2.848,2.129,5.1,5.1,0,0,1,.815,3.26,6.224,6.224,0,0,1-.861,2.761,5.758,5.758,0,0,1-1.992,2.059,6.089,6.089,0,0,1-2.932.8c-.451.012-1.344-.007-2.579-.072l-.267,3.868-3.206-.221.259-3.824-2.082-.148-.266,3.836L19.4,38.958l.266-3.836-5.212-.357.243-3.521,2.1.143a1.463,1.463,0,0,0,1.561-1.36l.772-11.2a1.463,1.463,0,0,0-1.36-1.561l-2.1-.143.244-3.521,5.212.357.279-4.066,3.164.221-.282,4.057,2.092.145.279-4.067,3.2.221-.284,4.089a19.266,19.266,0,0,1,2.413.352,5.557,5.557,0,0,1,2.143,1.03A5.452,5.452,0,0,1,35.643,17.823Zm-4.354,2.789a2.368,2.368,0,0,0-.427-1.625,2.477,2.477,0,0,0-1.562-.859c-.423-.078-1-.135-3.014-.281L24.143,17.7l-.335,4.9,2.48.17a21.54,21.54,0,0,0,2.482.1,2.8,2.8,0,0,0,1.776-.641A2.254,2.254,0,0,0,31.289,20.612Zm.17,8.958a2.737,2.737,0,0,0-.362-1.652,2.557,2.557,0,0,0-1.263-1.06,9.351,9.351,0,0,0-3.136-.517l-3.133-.219-.4,5.656,3.647.252a9.855,9.855,0,0,0,2.309.028,2.5,2.5,0,0,0,2.336-2.488Z"/><path class="cls-2" d="M30.546,22.227a2.8,2.8,0,0,1-1.776.641,21.54,21.54,0,0,1-2.482-.1l-2.48-.17.335-4.9,2.143.142c2.009.146,2.591.2,3.014.281a2.477,2.477,0,0,1,1.562.859,2.368,2.368,0,0,1,.427,1.625A2.254,2.254,0,0,1,30.546,22.227Z"/><path class="cls-2" d="M31.1,27.918a2.737,2.737,0,0,1,.362,1.652,2.5,2.5,0,0,1-2.336,2.488,9.855,9.855,0,0,1-2.309-.028l-3.647-.252.4-5.656,3.133.219a9.351,9.351,0,0,1,3.136.517A2.557,2.557,0,0,1,31.1,27.918Z"/><path class="cls-2" d="M24.655,39.315l3.206.221.267-3.868c1.235.065,2.128.084,2.579.072a6.089,6.089,0,0,0,2.932-.8,5.758,5.758,0,0,0,1.992-2.059,6.224,6.224,0,0,0,.861-2.761,5.1,5.1,0,0,0-.815-3.26,5.618,5.618,0,0,0-2.848-2.129,5.031,5.031,0,0,0,3.294-4.385,4.79,4.79,0,0,0-.48-2.52,5.452,5.452,0,0,0-1.506-1.885,5.557,5.557,0,0,0-2.143-1.03,19.266,19.266,0,0,0-2.413-.352l.284-4.089-3.2-.221-.279,4.067-2.092-.145.282-4.057L21.407,9.89l-.279,4.066L15.916,13.6l-.244,3.521,2.1.143a1.463,1.463,0,0,1,1.36,1.561l-.772,11.2a1.463,1.463,0,0,1-1.561,1.36l-2.1-.143-.243,3.521,5.212.357L19.4,38.958l3.164.221.266-3.836,2.082.148ZM18.565.78A24.69,24.69,0,1,1,.78,30.828,24.685,24.685,0,0,1,18.565.78Z"/></svg>