<svg id="Capa_1" data-name="Capa 1" xmlns="http://www.w3.org/2000/svg" xmlns:xlink="http://www.w3.org/1999/xlink" viewBox="0 0 49.385 49.385"><defs><style>.cls-1{fill:#fff;}.cls-2{fill:url(#Degradado_sin_nombre_6);}.cls-3{fill:url(#Degradado_sin_nombre_6-2);}.cls-4{fill:url(#Degradado_sin_nombre_6-3);}</style><linearGradient id="Degradado_sin_nombre_6" x1="28.295" y1="6.04" x2="21.226" y2="47.076" gradientUnits="userSpaceOnUse"><stop offset="0" stop-color="#bc8faf"/><stop offset="0.985" stop-color="#e100b5"/></linearGradient><linearGradient id="Degradado_sin_nombre_6-2" x1="28.146" y1="6.014" x2="21.077" y2="47.05" xlink:href="#Degradado_sin_nombre_6"/><linearGradient id="Degradado_sin_nombre_6-3" x1="28.134" y1="6.012" x2="21.065" y2="47.048" xlink:href="#Degradado_sin_nombre_6"/></defs><title>CRIPTOS</title><path class="cls-1" d="M24.692,0A24.693,24.693,0,1,0,49.385,24.692,24.692,24.692,0,0,0,24.692,0Z"/><path class="cls-2" d="M25.123,31.543l-12.3-7.084,12.3-20.37,12.3,20.37ZM14.749,23.962l10.374,5.975,10.372-5.975L25.121,6.782Z"/><polygon class="cls-3" points="36.189 24.852 25.122 20.233 14.054 24.852 13.518 23.568 25.122 18.724 36.725 23.568 36.189 24.852"/><path class="cls-4" d="M25.125,45.3,11.885,25.4,25.139,33.57,37.5,26.585Zm-8.56-15.379,8.556,12.861,8.026-12.135-8.039,4.543Z"/></svg>