<svg id="Capa_1" data-name="Capa 1" xmlns="http://www.w3.org/2000/svg" viewBox="0 0 49.385 49.385"><defs><style>.cls-1{fill:#fff;}.cls-2{fill:#00b8ea;}.cls-3{fill:#b9d336;}.cls-4{fill:#004218;}.cls-5{fill:#50ba5e;}.cls-6{fill:#eeea00;}.cls-7{fill:#00845f;}</style></defs><title>CRIPTOS</title><path class="cls-1" d="M24.692,0A24.693,24.693,0,1,0,49.385,24.692,24.692,24.692,0,0,0,24.692,0Z"/><path class="cls-1" d="M12,23.25c.033-.141.067-.28.105-.419-.083.336-.144.6-.181.772,0-.026.01-.053.016-.079.009-.046.019-.092.029-.138S11.987,23.3,12,23.25Z"/><path class="cls-2" d="M42.278,28.077c-1.087,3.123-4.412,4.011-8.222,6.618-3.038,2.078-5.415,6.617-9.626,6.617a11.179,11.179,0,0,1-8.345-3.5A20.606,20.606,0,0,0,24,37.378a16.76,16.76,0,0,0,7.55-3.716h0c5.721-3.563,8.732-8.192,9.925-12.034A9.477,9.477,0,0,1,42.278,28.077Z"/><path class="cls-3" d="M11.873,23.837a12.427,12.427,0,0,0-.077,4.24c.682,4.287,2.191,7.533,4.289,9.737-6.193-.986-8.738-5.283-9.1-6.907-.639-2.85,1.128-5.214,2.451-9.009,1.04-2.983.539-7,3.235-9.34a11.47,11.47,0,0,1,6.773-2.871C14.934,12.921,12.779,20.12,12.11,22.8l-.007.027c-.038.139-.072.278-.105.419-.011.045-.021.09-.031.136-.028.122-.054.243-.077.365l-.005.026,0,.011,0,.02v.007l0,0Z"/><path class="cls-4" d="M29.852,12.918l-.047-.03A14.163,14.163,0,0,0,12.11,22.8l-.007.027c-.013.052-.025.1-.037.151l-.021.087c-.049.205-.088.374-.116.5l-.007.033q-.008.03-.012.057c-.008.036-.014.066-.02.091l-.005.026,0,.011,0,.02v.007l0,0,0,.017a12.427,12.427,0,0,0-.077,4.24c.682,4.287,2.191,7.533,4.289,9.737A20.606,20.606,0,0,0,24,37.378a16.76,16.76,0,0,0,7.55-3.716h0C38.2,27.69,36.5,17.253,29.852,12.918ZM24.38,34.093a9.275,9.275,0,1,1,9.275-9.275A9.274,9.274,0,0,1,24.38,34.093Z"/><path class="cls-1" d="M12,23.25c.033-.141.067-.28.105-.419-.083.336-.144.6-.181.772q-.008.03-.012.057c.008-.045.018-.091.028-.136s.019-.092.029-.138S11.987,23.3,12,23.25Z"/><path class="cls-5" d="M29.805,12.888A14.163,14.163,0,0,0,12.11,22.8c.669-2.684,2.824-9.883,7.333-13.117C22.517,9.463,26.01,10.423,29.805,12.888Z"/><path class="cls-6" d="M41.473,21.627c-1.4-3.012-4.437-6.309-10.525-8.39q-.578-.2-1.143-.349c-3.795-2.465-7.288-3.425-10.362-3.2A8.167,8.167,0,0,1,24.38,8.073c3.018.032,4.915,2.678,7.219,3.309,4.891,1.34,8.122,1.5,9.726,3.509C42.224,16.014,42.423,18.571,41.473,21.627Z"/><path class="cls-7" d="M41.473,21.627c-1.193,3.842-4.2,8.471-9.925,12.034,6.649-5.971,4.95-16.408-1.7-20.743l-.047-.03q.566.152,1.143.349C37.036,15.318,40.072,18.615,41.473,21.627Z"/><polyline class="cls-1" points="11.876 23.82 11.878 23.812 11.879 23.808"/></svg>