<svg id="Capa_1" data-name="Capa 1" xmlns="http://www.w3.org/2000/svg" viewBox="0 0 49.385 49.385"><defs><style>.cls-1{fill:#0dd3ad;}.cls-2{fill:#fff;}</style></defs><title>CRIPTOS</title><path class="cls-1" d="M24.692,0A24.693,24.693,0,1,0,49.385,24.692,24.692,24.692,0,0,0,24.692,0Z"/><path class="cls-2" d="M27.569,19.539V16.277h8.948V10.524H12.868v5.753h8.948v3.262c-7.039.33-12.357,1.843-12.357,3.662s5.318,3.332,12.357,3.663v12h5.753v-12c7.039-.331,12.357-1.843,12.357-3.663S34.608,19.869,27.569,19.539Zm0,5.522c-.925.036-1.888.058-2.877.058s-1.951-.022-2.876-.058c-5.855-.247-10.227-1.225-10.227-2.393s4.372-2.145,10.227-2.392v4.167c.91.051,1.875.079,2.876.079s1.967-.028,2.877-.079V20.276C33.424,20.523,37.8,21.5,37.8,22.668S33.424,24.814,27.569,25.061Z"/></svg>