<svg id="Capa_1" data-name="Capa 1" xmlns="http://www.w3.org/2000/svg" viewBox="0 0 49.385 49.385"><defs><style>.cls-1{fill:#00b6e5;}.cls-2{fill:#fff;}</style></defs><title>XLM</title><path class="cls-1" d="M24.692,0A24.693,24.693,0,1,0,49.385,24.692,24.692,24.692,0,0,0,24.692,0Z"/><g id="fFcofh.tif"><path class="cls-2" d="M11.192,32.619c.267-.1.545-.189.8-.319Q24.633,25.858,37.27,19.409c.273-.14.555-.264.911-.433,0,.732.026,1.379-.018,2.02a.684.684,0,0,1-.381.457,2.685,2.685,0,0,0-1.732,2.926,10.834,10.834,0,0,1-5.751,10.2,10.993,10.993,0,0,1-11.552-.154c-.23-.132-.446-.29-.776-.507.717-.367,1.33-.718,1.977-.987.173-.072.465.073.676.173a9.368,9.368,0,0,0,13.384-9.041c-.011-.172-.049-.343-.081-.557a1.835,1.835,0,0,0-.284.084q-11.226,5.727-22.451,11.46Z"/><path class="cls-2" d="M11.192,28.032c.322-.16.649-.311.964-.483A2.092,2.092,0,0,0,13.3,25.425,11.423,11.423,0,0,1,31.376,15.4c-.687.353-1.283.689-1.906.962a.879.879,0,0,1-.619-.085,9.325,9.325,0,0,0-13.4,7.053,17.151,17.151,0,0,0-.017,2.547l22.752-11.6c0,.767.04,1.43-.025,2.082-.019.187-.312.4-.526.508q-7.98,4.092-15.973,8.161-4.926,2.512-9.853,5.022c-.2.1-.408.181-.612.271Z"/></g></svg>