<svg id="Capa_1" data-name="Capa 1" xmlns="http://www.w3.org/2000/svg" viewBox="0 0 49.385 49.385"><defs><style>.cls-1{fill:#0095d6;}.cls-2{fill:#fff;}</style></defs><title>criptos</title><path class="cls-1" d="M24.692,0A24.693,24.693,0,1,0,49.385,24.692,24.692,24.692,0,0,0,24.692,0Z"/><g id="JIabJu.tif"><path class="cls-2" d="M9.775,36.886c1.036-.986,2.085-1.961,3.108-2.961,1.953-1.91,3.89-3.835,5.836-5.752a8.4,8.4,0,0,1,11.932-.029q4.17,4.1,8.327,8.211c.173.171.336.35.629.656-1.474,0-2.8.018-4.122-.018-.2-.005-.422-.231-.592-.4q-3.141-3.075-6.267-6.164a5.293,5.293,0,0,0-7.827-.023c-2.069,2.039-4.148,4.068-6.2,6.123a1.554,1.554,0,0,1-1.245.5c-1.192-.028-2.386,0-3.578.008Z"/><path class="cls-2" d="M9.9,12.363c1.437,0,2.744-.021,4.049.02.223.007.467.247.652.428,2.1,2.05,4.175,4.113,6.268,6.164a5.285,5.285,0,0,0,7.668,0c2.108-2.071,4.2-4.156,6.327-6.209a1.591,1.591,0,0,1,.964-.393c1.181-.047,2.365-.018,3.721-.018-.3.317-.472.512-.657.694q-4.134,4.081-8.275,8.158a8.36,8.36,0,0,1-11.655.153c-2.938-2.819-5.807-5.71-8.7-8.571C10.155,12.7,10.076,12.582,9.9,12.363Z"/></g></svg>