<svg id="Capa_1" data-name="Capa 1" xmlns="http://www.w3.org/2000/svg" viewBox="0 0 100 100"><defs><style>.cls-1{fill:#a3a3a3;}</style></defs><title>Buy</title><path class="cls-1" d="M54.14,53.68h0a2.61,2.61,0,0,1-2.28-1.38L39,28.32a2.61,2.61,0,0,1,4.6-2.46L54.17,45.6,64.53,26.68a2.6,2.6,0,1,1,4.57,2.5L56.43,52.32A2.61,2.61,0,0,1,54.14,53.68Z"/><path class="cls-1" d="M54.15,53.68h-.08A2.6,2.6,0,0,1,51.54,51L52.86,3A2.61,2.61,0,0,1,55.46.5h.07a2.61,2.61,0,0,1,2.54,2.68l-1.32,48A2.61,2.61,0,0,1,54.15,53.68Z"/><path class="cls-1" d="M72.85,78.54H19A12.23,12.23,0,0,1,7.72,61.65L23.81,22.59a2.61,2.61,0,0,1,4.82,2L12.54,63.64A7,7,0,0,0,19,73.33H72.85A2.06,2.06,0,0,0,74.79,72L91,26a2.07,2.07,0,0,0-1.94-2.74h-.3a2.61,2.61,0,1,1,0-5.21h.3a7.26,7.26,0,0,1,6.85,9.68L79.7,73.69A7.28,7.28,0,0,1,72.85,78.54Z"/><path class="cls-1" d="M27.4,99.5a9.11,9.11,0,1,1,9.11-9.1A9.11,9.11,0,0,1,27.4,99.5Zm0-13a3.9,3.9,0,1,0,3.9,3.9A3.9,3.9,0,0,0,27.4,86.5Z"/><path class="cls-1" d="M63.15,99.5a9.11,9.11,0,1,1,9.11-9.1A9.11,9.11,0,0,1,63.15,99.5Zm0-13a3.9,3.9,0,1,0,3.9,3.9A3.9,3.9,0,0,0,63.15,86.5Z"/><path class="cls-1" d="M23.25,33.39a2.58,2.58,0,0,1-1-.21,2.6,2.6,0,0,1-1.39-3.41l6-14.21a2.61,2.61,0,0,0-2.41-3.63H6.28a2.61,2.61,0,0,1,0-5.21H24.42a7.82,7.82,0,0,1,7.21,10.86l-6,14.21A2.6,2.6,0,0,1,23.25,33.39Z"/></svg>