<svg id="Capa_1" data-name="Capa 1" xmlns="http://www.w3.org/2000/svg" viewBox="0 0 100 100"><defs><style>.cls-1{fill:#0068f9;}.cls-2{fill:none;stroke:#fff;stroke-miterlimit:10;}.cls-3{fill:#fff;}</style></defs><title>cambiar</title><circle class="cls-1" cx="50" cy="50" r="49.5"/><path class="cls-2" d="M70.45,49.24c0,.25,0,.5,0,.76A20.46,20.46,0,0,1,50,70.46h-.56"/><path class="cls-2" d="M29.54,50A20.47,20.47,0,0,1,50,29.53h.37"/><path class="cls-3" d="M55,30l-2.63-5.91a.36.36,0,0,0-.68.08L49.56,34.47a.36.36,0,0,0,.6.33l4.7-4.43A.37.37,0,0,0,55,30Z"/><path class="cls-3" d="M46.83,70.64,50,65a.36.36,0,0,1,.67.14l1.07,10.47a.35.35,0,0,1-.62.27l-4.25-4.85A.35.35,0,0,1,46.83,70.64Z"/></svg>