<svg id="Capa_1" data-name="Capa 1" xmlns="http://www.w3.org/2000/svg" viewBox="0 0 151.29 94.23"><defs><style>.cls-1{fill:#f4d9c8;}.cls-2{fill:#ecb89a;}.cls-3{fill:#1c232d;}.cls-4{fill:#ff4f5b;}.cls-13,.cls-5,.cls-9{fill:#fff;}.cls-6{fill:#2e4d6b;}.cls-7{fill:#061936;}.cls-8{fill:#294266;}.cls-9{opacity:0.14;isolation:isolate;}.cls-10{fill:none;stroke:#007dff;stroke-miterlimit:10;stroke-width:2px;stroke-dasharray:12;}.cls-11{fill:#0454e7;}.cls-12{fill:#00a0fd;}.cls-13{opacity:0.2;}.cls-14{fill:#fafafa;}.cls-15{opacity:0.4;}.cls-16{fill:#263238;}.cls-17,.cls-18{opacity:0.3;}.cls-19{fill:#ffac00;}</style></defs><title>cohete-día</title><g id="Grupo_594" data-name="Grupo 594"><path id="Trazado_653" data-name="Trazado 653" class="cls-1" d="M51.49,74c-.45-.69-5.62-6.2-9.91-3.32-4.06,2.72-6.85,10-6.85,10A8.12,8.12,0,0,1,38,79.57c-1.9,2.65-5.3,6.5-5.3,6.5s4.84-1.48,8-2.08a13.11,13.11,0,0,1-2.34,2.75s7.68.34,11.85-2.22C54.57,81.83,52,74.76,51.49,74Z"/><path id="Trazado_654" data-name="Trazado 654" class="cls-2" d="M50,75c-.39-.6-3.84-4-6.66-2.13s-4.81,5.92-4.81,5.92a4.39,4.39,0,0,1,2.25-.59c-1.12,2-3.2,4.77-3.2,4.77A55.24,55.24,0,0,1,43.14,82a7,7,0,0,1-1.43,2A22.93,22.93,0,0,0,49,81.78C52,80,50.41,75.63,50,75Z"/></g><g id="Grupo_634" data-name="Grupo 634"><g id="Grupo_593" data-name="Grupo 593"><path id="Trazado_652" data-name="Trazado 652" class="cls-3" d="M65.08,44.61l-17.18.62a2.53,2.53,0,0,0-1.1.31l-5,2.75a2.47,2.47,0,0,0-1,3.34l.06.1,1.79,2.9a2.33,2.33,0,0,0,.92.87l10.29,5.6a2.45,2.45,0,0,0,3-.57L67,48.66a2.46,2.46,0,0,0-2-4Z"/></g><g id="Grupo_595" data-name="Grupo 595"><path id="Trazado_655" data-name="Trazado 655" class="cls-3" d="M84,74.14,76.33,89.5a2.59,2.59,0,0,1-.74.87L71,93.75a2.46,2.46,0,0,1-3.44-.52l-.07-.09-1.89-2.83a2.46,2.46,0,0,1-.41-1.2L64.4,77.42a2.47,2.47,0,0,1,1.79-2.54l15-4.21a2.46,2.46,0,0,1,3,1.7A2.52,2.52,0,0,1,84,74.14Z"/></g><g id="Grupo_633" data-name="Grupo 633"><g id="Grupo_597" data-name="Grupo 597"><g id="Grupo_596" data-name="Grupo 596"><path id="Trazado_656" data-name="Trazado 656" class="cls-4" d="M93.71,67.5c-19.23,12.62-35,10.19-35,10.19L51.22,66.32s4.3-15.27,23.08-27.6a47.63,47.63,0,0,1,13.16-5.95c1.13-.33,2.25-.61,3.36-.85a60.15,60.15,0,0,1,6.65-1.07,67.88,67.88,0,0,1,18,.49,1.14,1.14,0,0,1,.93,1.31v0a62.7,62.7,0,0,1-6.47,17,56.23,56.23,0,0,1-3.62,5.68c-.67.92-1.37,1.83-2.13,2.73A47.82,47.82,0,0,1,93.71,67.5Z"/><circle id="Elipse_80" data-name="Elipse 80" class="cls-5" cx="79.41" cy="56.45" r="12.46"/><path id="Trazado_657" data-name="Trazado 657" class="cls-6" d="M89.46,58.4a10.13,10.13,0,0,1-6.32,7.41,11.58,11.58,0,0,1-1.42.42l-.14,0c-.3.06-.59.1-.89.14s-.47,0-.7,0a9,9,0,0,1-1,0h-.17l-.3,0a8.1,8.1,0,0,1-.86-.13l-.29-.06-.2,0a8.47,8.47,0,0,1-.86-.25A10.19,10.19,0,0,1,75,65.39h0l-.44-.23A10.12,10.12,0,1,1,89.46,58.4Z"/><path id="Trazado_658" data-name="Trazado 658" class="cls-7" d="M58.67,77.68l-1.41.87-7.4-11.28,1.35-1Z"/><path id="Trazado_659" data-name="Trazado 659" class="cls-7" d="M57.69,80.34l-.8.48c-.29.18-.78-.06-1.08-.51L47.66,67.9c-.3-.46-.32-1,0-1.19l.77-.55c.28-.2.76,0,1.06.48l8.23,12.53C58,79.64,58,80.16,57.69,80.34Z"/><path id="Trazado_660" data-name="Trazado 660" class="cls-7" d="M56.58,82.88l-.51.3c-.37.22-1-.08-1.35-.66L45.2,68c-.38-.58-.41-1.25-.07-1.5l.49-.35c.34-.25.94,0,1.32.61l9.61,14.63C56.93,82,56.94,82.66,56.58,82.88Z"/><path id="Trazado_661" data-name="Trazado 661" class="cls-3" d="M109.87,49.73,97.47,30.85a68.4,68.4,0,0,1,18,.5,1.07,1.07,0,0,1,.87,1.23v0A62.53,62.53,0,0,1,109.87,49.73Z"/><path id="Trazado_662" data-name="Trazado 662" class="cls-8" d="M104.12,58.13,87.46,32.77c1.13-.33,2.25-.61,3.36-.85l15.42,23.49C105.58,56.32,104.87,57.23,104.12,58.13Z"/><path id="Trazado_663" data-name="Trazado 663" class="cls-9" d="M89.46,58.4l-19.8-4.11a10.11,10.11,0,0,1,19.82,4Z"/></g></g></g></g><path class="cls-10" d="M32.68,86.07S-2.08,90.86.65,72.55,32.31,37.57,8,29.68"/><path class="cls-4" d="M150.7,54.25s.47-3.07-7.23-7.87c0,0-7.1-5.2-8.64-1.18-1.31,3.42,2.46,6.66,4.81,8.28a21.11,21.11,0,0,0,4.41,2.26C146.58,56.65,149.68,56.83,150.7,54.25Z"/><path class="cls-11" d="M150.7,54.25s.47-3.07-7.23-7.87c0,0-7.1-5.2-8.64-1.18-1.31,3.42,2.46,6.66,4.81,8.28a21.11,21.11,0,0,0,4.41,2.26C146.58,56.65,149.68,56.83,150.7,54.25Z"/><path class="cls-12" d="M150.73,54s1.12-3.94-6.58-8.74c0,0-7.83-4.54-9-.39-.79,2.84,2.82,5.87,5.17,7.49a22.9,22.9,0,0,0,4.53,2.47C147.38,55.76,150,56,150.73,54Z"/><ellipse class="cls-13" cx="142.91" cy="49.36" rx="2.8" ry="7.17" transform="translate(25.45 144.56) rotate(-58.08)"/><path class="cls-4" d="M146.83,52.24l-1.09-.67.18-.28,1.05.65.34-.54-1.13-.7.27-.43-5.71-3.56-.18.29-1.1-.74-.4.64,1.14.71-.11.17L139,47.1l-.38.6,1.29.81S139.59,49,141,50a1.86,1.86,0,0,0,1.88.41,2,2,0,0,0,.82,1.13,2.72,2.72,0,0,0,1.7.55l1.06.66Zm-5.32-2.79a1,1,0,0,1-.12-1.41l1.42.88S142.32,50.05,141.51,49.45Zm2.37,1.37a.71.71,0,0,1,0-1.18l1.21.76S144.75,51.48,143.88,50.82Z"/><path class="cls-11" d="M146.83,52.24l-1.09-.67.18-.28,1.05.65.34-.54-1.13-.7.27-.43-5.71-3.56-.18.29-1.1-.74-.4.64,1.14.71-.11.17L139,47.1l-.38.6,1.29.81S139.59,49,141,50a1.86,1.86,0,0,0,1.88.41,2,2,0,0,0,.82,1.13,2.72,2.72,0,0,0,1.7.55l1.06.66Zm-5.32-2.79a1,1,0,0,1-.12-1.41l1.42.88S142.32,50.05,141.51,49.45Zm2.37,1.37a.71.71,0,0,1,0-1.18l1.21.76S144.75,51.48,143.88,50.82Z"/><path class="cls-12" d="M147,51.71,145.88,51l.17-.28,1,.65.34-.54-1.12-.7.26-.43-5.7-3.56-.18.29-1.11-.74-.39.64,1.13.71-.11.17-1.1-.68-.38.6L140,48s-.31.47,1.12,1.53a1.86,1.86,0,0,0,1.88.41,2,2,0,0,0,.83,1.13,2.69,2.69,0,0,0,1.69.55l1.06.66Zm-5.32-2.79a1,1,0,0,1-.11-1.42l1.42.89S142.45,49.52,141.64,48.92ZM144,50.29a.71.71,0,0,1,0-1.18l1.22.76S144.88,51,144,50.29Z"/><path class="cls-14" d="M150.78,53.58s0-.28-.11-.78a7.14,7.14,0,0,0-.71-2,8.42,8.42,0,0,0-.78-1.25,11.45,11.45,0,0,0-1.11-1.27,21.33,21.33,0,0,0-3-2.4,15.33,15.33,0,0,0-6.47-2.64,4.43,4.43,0,0,0-2.09.2l-.17.07-.14.07-.12.06-.09.06c-.11.07-.17.11-.17.1l.15-.13.09-.06.12-.07.14-.08.16-.08a4.48,4.48,0,0,1,2.13-.26,14.84,14.84,0,0,1,6.55,2.63,20.83,20.83,0,0,1,3.06,2.43,10.75,10.75,0,0,1,1.11,1.29,8.62,8.62,0,0,1,.78,1.28,6.92,6.92,0,0,1,.66,2c0,.13,0,.24,0,.34a2.36,2.36,0,0,1,0,.25C150.79,53.51,150.79,53.58,150.78,53.58Z"/><path class="cls-15" d="M137,45.39s1.83-2.38,7.68,1.17S149,53.15,149,53.15s1.23-2.52-4.76-6.28C139,43.61,137,45.39,137,45.39Z"/><path class="cls-14" d="M147.47,51a1.44,1.44,0,0,1-.33-.19l-.86-.56-.05,0,0,0,.27-.36v.1l-2.07-1.28c-1-.63-1.91-1.21-2.55-1.64l-.77-.51a1.31,1.31,0,0,1-.27-.21,2.13,2.13,0,0,1,.31.16c.19.1.46.26.79.46l2.58,1.6c.77.48,1.48.93,2.06,1.31l.06,0-.05.06-.27.34,0-.08.83.61A1.79,1.79,0,0,1,147.47,51Z"/><path class="cls-14" d="M144.09,50.4s-.07,0-.14,0a.89.89,0,0,1-.23-.24.66.66,0,0,1-.09-.33c0-.08,0-.13,0-.13s.08.18.19.37S144.11,50.36,144.09,50.4Z"/><path class="cls-14" d="M141.42,48.73s0,0-.11,0a.6.6,0,0,1-.15-.21.63.63,0,0,1,0-.26c0-.06,0-.1.06-.1s.07.15.13.3S141.45,48.69,141.42,48.73Z"/><path class="cls-14" d="M142.76,52.63a3.55,3.55,0,0,1-1.17-.63,3.73,3.73,0,0,1-1-.89,8.62,8.62,0,0,1,1.09.76A9.29,9.29,0,0,1,142.76,52.63Z"/><path class="cls-16" d="M134.91,48.36l0,0,.07-.09.22-.27a2.15,2.15,0,0,1,.33-.36,2.41,2.41,0,0,1-.29.4C135.09,48.22,134.93,48.38,134.91,48.36Z"/><path class="cls-16" d="M134.56,46.85l0,0,0-.07.17-.21c.14-.17.26-.3.28-.29a1.52,1.52,0,0,1-.23.32C134.71,46.74,134.58,46.87,134.56,46.85Z"/><path class="cls-16" d="M135.52,49.53a3,3,0,0,1,.33-.44,3.37,3.37,0,0,1,.38-.39,3.3,3.3,0,0,1-.33.43A2.45,2.45,0,0,1,135.52,49.53Z"/><path class="cls-16" d="M136.29,50.55a3.72,3.72,0,0,1,.36-.46,3.38,3.38,0,0,1,.4-.42,3.72,3.72,0,0,1-.36.46A2.7,2.7,0,0,1,136.29,50.55Z"/><path class="cls-16" d="M137.32,51.56a3.72,3.72,0,0,1,.36-.46,3,3,0,0,1,.39-.42,3.09,3.09,0,0,1-.35.46A3.38,3.38,0,0,1,137.32,51.56Z"/><path class="cls-16" d="M138.36,52.44a3.72,3.72,0,0,1,.36-.46,3,3,0,0,1,.39-.42,2.42,2.42,0,0,1-.35.46A3.38,3.38,0,0,1,138.36,52.44Z"/><path class="cls-16" d="M139.4,53.32a3,3,0,0,1,.36-.46,4.71,4.71,0,0,1,.39-.43,2.3,2.3,0,0,1-.35.47A3.38,3.38,0,0,1,139.4,53.32Z"/><path class="cls-16" d="M140.59,54a3,3,0,0,1,.36-.46,3.11,3.11,0,0,1,.4-.43,3.39,3.39,0,0,1-.36.47A2.7,2.7,0,0,1,140.59,54Z"/><path class="cls-16" d="M141.81,54.7a3.81,3.81,0,0,1,.35-.47,3.38,3.38,0,0,1,.4-.42,3.36,3.36,0,0,1-.35.46A4,4,0,0,1,141.81,54.7Z"/><path class="cls-16" d="M143,55.35a3,3,0,0,1,.36-.46,3.11,3.11,0,0,1,.4-.43,3,3,0,0,1-.36.46A2.53,2.53,0,0,1,143,55.35Z"/><path class="cls-16" d="M144.32,55.86a3.36,3.36,0,0,1,.35-.46,4,4,0,0,1,.4-.43,3.81,3.81,0,0,1-.35.47A3.38,3.38,0,0,1,144.32,55.86Z"/><path class="cls-16" d="M145.74,56.24a3.72,3.72,0,0,1,.36-.46,3,3,0,0,1,.39-.42,3.09,3.09,0,0,1-.35.46A3.38,3.38,0,0,1,145.74,56.24Z"/><path class="cls-16" d="M147.19,56.31a2.63,2.63,0,0,1,.32-.41,1.84,1.84,0,0,1,.36-.38,2.19,2.19,0,0,1-.32.41A1.84,1.84,0,0,1,147.19,56.31Z"/><path class="cls-16" d="M148.59,56.17a1.9,1.9,0,0,1,.31-.41,2.75,2.75,0,0,1,.36-.38,2.63,2.63,0,0,1-.32.41A2.41,2.41,0,0,1,148.59,56.17Z"/><circle class="cls-4" cx="129.82" cy="21.71" r="7.26"/><circle class="cls-13" cx="129.82" cy="21.71" r="7.26"/><path class="cls-16" d="M127.55,14.81a1.58,1.58,0,0,1,.39.19,1.39,1.39,0,0,1,.36.26,1.79,1.79,0,0,1-.39-.19A1.39,1.39,0,0,1,127.55,14.81Z"/><path class="cls-16" d="M128.77,14.55a1.09,1.09,0,0,1,.38.18,1.15,1.15,0,0,1,.35.24,1.09,1.09,0,0,1-.38-.18A1.78,1.78,0,0,1,128.77,14.55Z"/><path class="cls-16" d="M130,14.45a1.84,1.84,0,0,1,.38.18,1.14,1.14,0,0,1,.34.25,1.84,1.84,0,0,1-.38-.18A1.14,1.14,0,0,1,130,14.45Z"/><path class="cls-16" d="M126.38,15.31a1.36,1.36,0,0,1,.39.19,1.52,1.52,0,0,1,.36.25,1.1,1.1,0,0,1-.39-.19A1.24,1.24,0,0,1,126.38,15.31Z"/><path class="cls-16" d="M125.4,16a1.79,1.79,0,0,1,.39.19,1.39,1.39,0,0,1,.36.26,1.74,1.74,0,0,1-.4-.19C125.55,16.08,125.38,16,125.4,16Z"/><path class="cls-16" d="M124.53,16.76a1.36,1.36,0,0,1,.39.18,1.24,1.24,0,0,1,.36.25,1.36,1.36,0,0,1-.39-.18A1.24,1.24,0,0,1,124.53,16.76Z"/><path class="cls-16" d="M123.8,17.61a1.35,1.35,0,0,1,.4.19,1.24,1.24,0,0,1,.36.25,1.35,1.35,0,0,1-.4-.19A1.83,1.83,0,0,1,123.8,17.61Z"/><path class="cls-16" d="M123.23,18.62a1.25,1.25,0,0,1,.39.19,1.52,1.52,0,0,1,.36.25,1.1,1.1,0,0,1-.39-.19A1.24,1.24,0,0,1,123.23,18.62Z"/><path class="cls-16" d="M122.83,19.69a1.18,1.18,0,0,1,.4.18,1.39,1.39,0,0,1,.36.26,1.74,1.74,0,0,1-.4-.19A1.52,1.52,0,0,1,122.83,19.69Z"/><path class="cls-16" d="M122.61,20.69a1.1,1.1,0,0,1,.4.19,1.24,1.24,0,0,1,.36.25,1.74,1.74,0,0,1-.4-.19A1.52,1.52,0,0,1,122.61,20.69Z"/><path class="cls-16" d="M122.59,21.81a1.35,1.35,0,0,1,.41.2,1.3,1.3,0,0,1,.37.26,1.72,1.72,0,0,1-.41-.2A1.57,1.57,0,0,1,122.59,21.81Z"/><path class="cls-16" d="M122.68,23a1.47,1.47,0,0,1,.41.19,2,2,0,0,1,.37.26,1.47,1.47,0,0,1-.41-.19A2,2,0,0,1,122.68,23Z"/><path class="cls-16" d="M123,24.07a1.76,1.76,0,0,1,.42.18,1.22,1.22,0,0,1,.39.23,2,2,0,0,1-.43-.17A1.22,1.22,0,0,1,123,24.07Z"/><path class="cls-16" d="M123.45,25.2a2.38,2.38,0,0,1,.46.23,2,2,0,0,1,.41.28,1.63,1.63,0,0,1-.45-.22A1.69,1.69,0,0,1,123.45,25.2Z"/><path class="cls-16" d="M124.41,26.56a1.71,1.71,0,0,1,.49.23,2,2,0,0,1,.45.3,2.47,2.47,0,0,1-.49-.24A2.14,2.14,0,0,1,124.41,26.56Z"/><circle class="cls-4" cx="130.63" cy="22.1" r="7.26"/><ellipse class="cls-13" cx="130.56" cy="22.06" rx="5.53" ry="5.4" transform="translate(11.52 80.05) rotate(-35.56)"/><path class="cls-14" d="M133.69,26.43a5.52,5.52,0,0,1-7.62-1.16l.08.13a5.53,5.53,0,0,0,9-6.43,1.13,1.13,0,0,1-.1-.13A5.53,5.53,0,0,1,133.69,26.43Z"/><path class="cls-17" d="M127.44,17.69a5.53,5.53,0,0,1,7.62,1.15l-.09-.13a5.53,5.53,0,1,0-9,6.44l.1.12A5.52,5.52,0,0,1,127.44,17.69Z"/><g class="cls-18"><path d="M131.24,22.81l-3.16.31-.6-.18-.22-5.12.59-.12L132.58,20Zm.49-2.83-3.82-1.81.07.29.21-.25,2.42,1.14"/><path d="M133.24,26.12l-5.7-2.4,3.62-.29,1.47-2.89.6.19Z"/></g><path class="cls-4" d="M127.85,17.7l.23,5.42,3.24-.2,1.44-2.9Z"/><path class="cls-4" d="M133.24,25.85l-5-2.12,3.55-.11,1.47-2.89Z"/><path class="cls-5" d="M128.07,22.77a1.5,1.5,0,0,1-.42-1,1.52,1.52,0,0,1,.33-1,1.54,1.54,0,0,1,.42,1A1.48,1.48,0,0,1,128.07,22.77Z"/><path class="cls-5" d="M127.92,19.32a9.11,9.11,0,0,1-.36-1.61l-.06-.45.48.17a16.32,16.32,0,0,1,2.22,1,10.89,10.89,0,0,1,2.05,1.36,11.45,11.45,0,0,1-2.35-.72,17.67,17.67,0,0,1-2.17-1.1l.41-.28A9.11,9.11,0,0,1,127.92,19.32Z"/><path class="cls-5" d="M133.24,25.85a10,10,0,0,1-5-2.12,9.09,9.09,0,0,1,2.66.71A9.28,9.28,0,0,1,133.24,25.85Z"/><path class="cls-19" d="M41.21,7.61s4.28-3.45,18.49,4.05c0,0,14.29,6.22,9.51,12.17-4.06,5.05-12.38,2.18-17,0a37.89,37.89,0,0,1-7.39-4.73C41.2,16.07,38.16,11.48,41.21,7.61Z"/><path class="cls-15" d="M41.21,7.61s4.28-3.45,18.49,4.05c0,0,14.29,6.22,9.51,12.17-4.06,5.05-12.38,2.18-17,0a37.89,37.89,0,0,1-7.39-4.73C41.2,16.07,38.16,11.48,41.21,7.61Z"/><path class="cls-19" d="M41.53,7.36s5-5.23,19.24,2.27c0,0,13.94,7.95,8.64,13.43-3.64,3.75-11.51.92-16.09-1.23a41,41,0,0,1-7.81-4.72C41.85,14.05,39.15,10.16,41.53,7.36Z"/><ellipse class="cls-13" cx="55.64" cy="15.17" rx="4.96" ry="12.71" transform="translate(16.24 57.28) rotate(-62.16)"/><path class="cls-19" d="M63.4,18.16l-1.92-1.11a4.8,4.8,0,0,0-2.28-2.18,3.41,3.41,0,0,0-2.45-.34s0-1.56-2.21-2.6c-2.85-1.36-3.34-.47-3.34-.47l-2.34-1.35-.63,1.09,2,1.15-.19.32-2-1.18-.67,1.15,2.08,1.11-.3.52,10.33,5.94.45-.78,2,1.17.57-1-1.9-1.1.29-.5,1.89,1.09Zm-9.12-2.5-2.57-1.48a1.68,1.68,0,0,1,2.31-1C55.63,13.94,54.28,15.66,54.28,15.66ZM58.49,18,56.28,16.7a1.26,1.26,0,0,1,1.86-1C59.91,16.53,58.49,18,58.49,18Z"/><path class="cls-15" d="M63.4,18.16l-1.92-1.11a4.8,4.8,0,0,0-2.28-2.18,3.41,3.41,0,0,0-2.45-.34s0-1.56-2.21-2.6c-2.85-1.36-3.34-.47-3.34-.47l-2.34-1.35-.63,1.09,2,1.15-.19.32-2-1.18-.67,1.15,2.08,1.11-.3.52,10.33,5.94.45-.78,2,1.17.57-1-1.9-1.1.29-.5,1.89,1.09Zm-9.12-2.5-2.57-1.48a1.68,1.68,0,0,1,2.31-1C55.63,13.94,54.28,15.66,54.28,15.66ZM58.49,18,56.28,16.7a1.26,1.26,0,0,1,1.86-1C59.91,16.53,58.49,18,58.49,18Z"/><path class="cls-19" d="M63.87,17.32,62,16.22A4.79,4.79,0,0,0,59.67,14a3.48,3.48,0,0,0-2.45-.34s0-1.56-2.2-2.59c-2.86-1.36-3.34-.48-3.34-.48L49.33,9.27l-.63,1.1,2,1.15-.19.32-2-1.18-.66,1.15,2.07,1.1-.3.52L59.9,19.37l.45-.77,2,1.17.57-1-1.9-1.09.29-.51,2,1.13Zm-9.12-2.5-2.57-1.48a1.69,1.69,0,0,1,2.31-1C56.11,13.11,54.75,14.82,54.75,14.82ZM59,17.13l-2.2-1.27a1.25,1.25,0,0,1,1.85-1C60.38,15.7,59,17.13,59,17.13Z"/><path class="cls-14" d="M42.15,6.89a1.64,1.64,0,0,1,.31-.2,2.59,2.59,0,0,1,.38-.21,5.87,5.87,0,0,1,.55-.25,12.11,12.11,0,0,1,3.74-.85,15.84,15.84,0,0,1,2.65,0,18.19,18.19,0,0,1,3,.55,35.41,35.41,0,0,1,6.46,2.51,26,26,0,0,1,9.87,7.73,7.72,7.72,0,0,1,1.49,3.52l0,.33v.28a1.89,1.89,0,0,1,0,.44c0,.24-.06.36-.08.36s0-.51-.1-1.38a8,8,0,0,0-1.58-3.35A27.3,27.3,0,0,0,59,8.92a38.81,38.81,0,0,0-6.37-2.51,18.82,18.82,0,0,0-2.92-.58,15.5,15.5,0,0,0-2.59-.1,13.13,13.13,0,0,0-3.69.68C42.62,6.7,42.17,6.93,42.15,6.89Z"/><path class="cls-15" d="M67,20.72S69,15.8,58.38,10s-14-.78-14-.78,2.76-4.14,13.86,1.68C67.91,16,67,20.72,67,20.72Z"/><path class="cls-16" d="M64.3,26.52c-.06,0,0-.4.2-.85a2.61,2.61,0,0,1,.38-.8,2.28,2.28,0,0,1-.22.85A3.27,3.27,0,0,1,64.3,26.52Z"/><path class="cls-16" d="M66.93,25.71c-.06,0,0-.33.14-.69s.28-.65.33-.63a1.73,1.73,0,0,1-.17.68A2.25,2.25,0,0,1,66.93,25.71Z"/><path class="cls-16" d="M62,26.63a2.59,2.59,0,0,1,.24-.94,2.69,2.69,0,0,1,.39-.87,2.56,2.56,0,0,1-.24.93A3,3,0,0,1,62,26.63Z"/><path class="cls-16" d="M59.71,26.37a3.39,3.39,0,0,1,.27-1,3.54,3.54,0,0,1,.42-.95,3.39,3.39,0,0,1-.27,1A3.21,3.21,0,0,1,59.71,26.37Z"/><path class="cls-16" d="M57.25,25.7a3.47,3.47,0,0,1,.27-1,3.21,3.21,0,0,1,.42-.94,3.45,3.45,0,0,1-.27,1A3.21,3.21,0,0,1,57.25,25.7Z"/><path class="cls-16" d="M55,24.89a3.26,3.26,0,0,1,.26-1,3.21,3.21,0,0,1,.42-.94,3,3,0,0,1-.26,1A3.57,3.57,0,0,1,55,24.89Z"/><path class="cls-16" d="M52.71,24.08a3,3,0,0,1,.26-1,3.21,3.21,0,0,1,.42-.94,3.33,3.33,0,0,1-.26,1A3.38,3.38,0,0,1,52.71,24.08Z"/><path class="cls-16" d="M50.57,22.88a3.47,3.47,0,0,1,.27-1,2.94,2.94,0,0,1,.42-.95,3.39,3.39,0,0,1-.27,1A3.54,3.54,0,0,1,50.57,22.88Z"/><path class="cls-16" d="M48.45,21.62a3.55,3.55,0,0,1,.27-1,3.38,3.38,0,0,1,.42-.94,3.55,3.55,0,0,1-.27,1A3.08,3.08,0,0,1,48.45,21.62Z"/><path class="cls-16" d="M46.35,20.31a3.55,3.55,0,0,1,.27-1,3.38,3.38,0,0,1,.42-.94,3.55,3.55,0,0,1-.27,1A3.08,3.08,0,0,1,46.35,20.31Z"/><path class="cls-16" d="M44.43,18.82a3.55,3.55,0,0,1,.27-1,2.7,2.7,0,0,1,.42-.94,3.55,3.55,0,0,1-.27,1A3.38,3.38,0,0,1,44.43,18.82Z"/><path class="cls-16" d="M42.58,17a3,3,0,0,1,.26-1,3.57,3.57,0,0,1,.42-.94A3,3,0,0,1,43,16,3.21,3.21,0,0,1,42.58,17Z"/><path class="cls-16" d="M41.17,14.82a2.64,2.64,0,0,1,.23-.89,2.37,2.37,0,0,1,.39-.84,2.74,2.74,0,0,1-.23.89A2.37,2.37,0,0,1,41.17,14.82Z"/><path class="cls-16" d="M40.15,12.56a2.74,2.74,0,0,1,.23-.89,2.85,2.85,0,0,1,.38-.84,2.64,2.64,0,0,1-.23.89A2.7,2.7,0,0,1,40.15,12.56Z"/><path class="cls-14" d="M54,12.31c-.05.13-.29.15-.55.17s-.49,0-.57-.07,0-.15.09-.24a.75.75,0,0,1,.44-.18.73.73,0,0,1,.47.1C54,12.17,54.06,12.25,54,12.31Z"/><path class="cls-14" d="M58.55,14.92c-.08.11-.34.07-.62.05s-.55,0-.61-.15,0-.15.14-.23a.84.84,0,0,1,.51-.11.79.79,0,0,1,.48.2C58.56,14.77,58.59,14.87,58.55,14.92Z"/><path class="cls-14" d="M55.28,11.23s-.11,0-.27,0L54.36,11a6.16,6.16,0,0,0-1-.28,3,3,0,0,0-1.15,0,1.23,1.23,0,0,0-.23.08.52.52,0,0,0-.17.09l-.16.11-.13-.08a8.28,8.28,0,0,1-2.23-1.56,8.84,8.84,0,0,1,2.47,1.14l-.29,0a1,1,0,0,1,.31-.2,1.7,1.7,0,0,1,.32-.1,2.82,2.82,0,0,1,1.37.08,4.42,4.42,0,0,1,1,.4,3.92,3.92,0,0,1,.6.39Q55.31,11.19,55.28,11.23Z"/><path class="cls-19" d="M109.58.28S113,2.5,110.91,14.11c0,0-1.13,11.39-6.36,9.39-4.45-1.71-4.31-8.17-3.84-11.85a27.93,27.93,0,0,1,1.65-6.23C103.67,2.18,106.2-1,109.58.28Z"/><path class="cls-15" d="M109.58.28S113,2.5,110.91,14.11c0,0-1.13,11.39-6.36,9.39-4.45-1.71-4.31-8.17-3.84-11.85a27.93,27.93,0,0,1,1.65-6.23C103.67,2.18,106.2-1,109.58.28Z"/><path class="cls-19" d="M109.83.46s4.79,2.33,2.74,13.94c0,0-2.42,11.53-7.44,9.06-3.44-1.7-3.23-7.83-2.76-11.52a30.21,30.21,0,0,1,1.55-6.52C105.23,2.18,107.34-.58,109.83.46Z"/><ellipse class="cls-13" cx="107.55" cy="12.06" rx="9.33" ry="3.64" transform="translate(76.98 115.88) rotate(-79.99)"/><path class="cls-19" d="M107.2,18.16l.34-1.59a3.53,3.53,0,0,0,1-2.08,2.5,2.5,0,0,0-.32-1.79,2.41,2.41,0,0,0,1.32-2.13c.31-2.3-.42-2.44-.42-2.44l.42-1.94L108.65,6l-.35,1.65L108,7.59l.37-1.7-1-.2-.3,1.7-.43-.1-1.83,8.56.64.13-.36,1.69.82.17.33-1.57.42.09-.33,1.57Zm-.3-6.94.46-2.12s1.39.09,1.22,1.39S106.9,11.22,106.9,11.22Zm-.67,3.47.39-1.83s1.24-.15,1.1,1.08C107.55,15.35,106.23,14.69,106.23,14.69Z"/><path class="cls-15" d="M107.2,18.16l.34-1.59a3.53,3.53,0,0,0,1-2.08,2.5,2.5,0,0,0-.32-1.79,2.41,2.41,0,0,0,1.32-2.13c.31-2.3-.42-2.44-.42-2.44l.42-1.94L108.65,6l-.35,1.65L108,7.59l.37-1.7-1-.2-.3,1.7-.43-.1-1.83,8.56.64.13-.36,1.69.82.17.33-1.57.42.09-.33,1.57Zm-.3-6.94.46-2.12s1.39.09,1.22,1.39S106.9,11.22,106.9,11.22Zm-.67,3.47.39-1.83s1.24-.15,1.1,1.08C107.55,15.35,106.23,14.69,106.23,14.69Z"/><path class="cls-19" d="M107.89,18.3l.34-1.59a3.49,3.49,0,0,0,1-2.08,2.5,2.5,0,0,0-.32-1.79,2.41,2.41,0,0,0,1.32-2.13c.31-2.3-.42-2.43-.42-2.43l.42-1.95-.91-.19L109,7.79l-.27,0,.37-1.7-1-.21-.3,1.7-.43-.09L105.57,16l.64.14-.36,1.68.82.18.33-1.58.42.09-.35,1.62Zm-.3-6.93.46-2.13s1.39.09,1.22,1.39S107.59,11.37,107.59,11.37Zm-.67,3.46.39-1.83s1.24-.15,1.1,1.08C108.24,15.5,106.92,14.83,106.92,14.83Z"/><path class="cls-14" d="M110.3.78a1.07,1.07,0,0,1,.21.17,1.53,1.53,0,0,1,.23.22l.3.33a8.86,8.86,0,0,1,1.43,2.42A11,11,0,0,1,113,5.78,13.7,13.7,0,0,1,113.33,8a26.43,26.43,0,0,1-.3,5.08,19.19,19.19,0,0,1-3.18,8.63,5.53,5.53,0,0,1-2.13,1.83l-.22.1-.2.06a1.63,1.63,0,0,1-.31.07.93.93,0,0,1-.27,0s.36-.09.94-.38a5.83,5.83,0,0,0,2-1.86,19.82,19.82,0,0,0,3-8.53A27.69,27.69,0,0,0,113,8a14.36,14.36,0,0,0-.25-2.17A12,12,0,0,0,112.23,4a9.51,9.51,0,0,0-1.3-2.42C110.54,1.06,110.28.81,110.3.78Z"/><path class="cls-15" d="M106.22,21.27s3.89.3,5.54-8.45-2.59-9.94-2.59-9.94,3.51,1,1.93,10.06C109.73,20.83,106.22,21.27,106.22,21.27Z"/><path class="cls-16" d="M101.56,20.67c0-.05.29-.06.64-.05a1.43,1.43,0,0,1,.64.09,2,2,0,0,1-.64,0A2.42,2.42,0,0,1,101.56,20.67Z"/><path class="cls-16" d="M102.72,22.32s.23-.06.51-.05a1.23,1.23,0,0,1,.52.08s-.24,0-.52,0A1.56,1.56,0,0,1,102.72,22.32Z"/><path class="cls-16" d="M101,19.07a4.24,4.24,0,0,1,1.42,0,2.33,2.33,0,0,1-.71,0A2.26,2.26,0,0,1,101,19.07Z"/><path class="cls-16" d="M100.64,17.43a2.25,2.25,0,0,1,.76,0,2.52,2.52,0,0,1,.75.08,2.6,2.6,0,0,1-.76,0A2.52,2.52,0,0,1,100.64,17.43Z"/><path class="cls-16" d="M100.55,15.56a2.6,2.6,0,0,1,.76,0,2.39,2.39,0,0,1,.75.08,4.8,4.8,0,0,1-1.51,0Z"/><path class="cls-16" d="M100.61,13.79a4.8,4.8,0,0,1,1.51,0,2.6,2.6,0,0,1-.76,0A2.46,2.46,0,0,1,100.61,13.79Z"/><path class="cls-16" d="M100.66,12a2.6,2.6,0,0,1,.76,0,2.46,2.46,0,0,1,.75.08,4.8,4.8,0,0,1-1.51,0Z"/><path class="cls-16" d="M101,10.26a2.25,2.25,0,0,1,.76,0,2.46,2.46,0,0,1,.75.08,4.8,4.8,0,0,1-1.51,0Z"/><path class="cls-16" d="M101.42,8.5a2,2,0,0,1,.76,0,2.22,2.22,0,0,1,.76.08,2.65,2.65,0,0,1-.76,0A2.56,2.56,0,0,1,101.42,8.5Z"/><path class="cls-16" d="M101.87,6.73a2.6,2.6,0,0,1,.76,0,2.34,2.34,0,0,1,.75.09,2.42,2.42,0,0,1-.76,0A2.14,2.14,0,0,1,101.87,6.73Z"/><path class="cls-16" d="M102.48,5.05a2.38,2.38,0,0,1,.75,0,2.22,2.22,0,0,1,.76.08,2.6,2.6,0,0,1-.76,0A2.28,2.28,0,0,1,102.48,5.05Z"/><path class="cls-16" d="M103.34,3.35a2.25,2.25,0,0,1,.76,0,2.56,2.56,0,0,1,.76.08,2.65,2.65,0,0,1-.76,0A2.56,2.56,0,0,1,103.34,3.35Z"/><path class="cls-16" d="M104.54,1.88a2.07,2.07,0,0,1,.68,0,2,2,0,0,1,.67.08,2.07,2.07,0,0,1-.68,0A2,2,0,0,1,104.54,1.88Z"/><path class="cls-16" d="M105.89.66a1.76,1.76,0,0,1,.67,0,1.65,1.65,0,0,1,.67.08,2,2,0,0,1-.67,0A2,2,0,0,1,105.89.66Z"/><path class="cls-14" d="M109.18,10.3c-.1,0-.16-.17-.24-.34s-.14-.34-.08-.42.1,0,.19,0a.58.58,0,0,1,.23.27.63.63,0,0,1,0,.35C109.28,10.26,109.23,10.31,109.18,10.3Z"/><path class="cls-14" d="M108.37,14c-.09,0-.12-.22-.17-.42s-.11-.39,0-.46.11,0,.19.05a.56.56,0,0,1,.19.33.53.53,0,0,1,0,.38C108.48,14,108.42,14.06,108.37,14Z"/><path class="cls-14" d="M110.22,10.93s0-.07,0-.2l0-.51a6.25,6.25,0,0,0,0-.73,2,2,0,0,0-.24-.81.56.56,0,0,0-.1-.15l-.1-.1-.12-.08,0-.11a6.35,6.35,0,0,1,.59-1.91,6.21,6.21,0,0,1-.24,2l-.09-.19a.88.88,0,0,1,.2.17,1,1,0,0,1,.15.2,2,2,0,0,1,.25,1,3.13,3.13,0,0,1-.06.79,2.54,2.54,0,0,1-.14.51C110.28,10.88,110.24,10.94,110.22,10.93Z"/></svg>