<svg id="Capa_1" data-name="Capa 1" xmlns="http://www.w3.org/2000/svg" viewBox="0 0 151.29 94.23"><defs><style>.cls-1{fill:#f4d9c8;}.cls-2{fill:#ecb89a;}.cls-3{fill:#f5f6f7;}.cls-4{fill:#009cf9;}.cls-14,.cls-5{fill:#fff;}.cls-6{fill:#2c4b67;}.cls-7{fill:#dbdbdb;}.cls-8{fill:#58747f;}.cls-9{fill:#48647b;}.cls-10{fill:none;stroke:#007dff;stroke-miterlimit:10;stroke-width:2px;stroke-dasharray:12;}.cls-11{fill:#ff4f5b;}.cls-12{fill:#0454e7;}.cls-13{fill:#00a0fd;}.cls-14{opacity:0.2;}.cls-15{fill:#fafafa;}.cls-16{opacity:0.4;}.cls-17{fill:#263238;}.cls-18,.cls-19{opacity:0.3;}.cls-20{fill:#ffac00;}</style></defs><title>cohete</title><g id="Grupo_594" data-name="Grupo 594"><path id="Trazado_653" data-name="Trazado 653" class="cls-1" d="M52,74c-.45-.69-5.62-6.2-9.91-3.32-4.06,2.72-6.85,10-6.85,10a8.12,8.12,0,0,1,3.25-1.11c-1.9,2.65-5.3,6.5-5.3,6.5s4.84-1.48,8-2.08a13.11,13.11,0,0,1-2.34,2.75s7.68.34,11.85-2.22C55.07,81.83,52.47,74.76,52,74Z"/><path id="Trazado_654" data-name="Trazado 654" class="cls-2" d="M50.49,75c-.39-.6-3.84-4-6.66-2.13S39,78.76,39,78.76a4.39,4.39,0,0,1,2.25-.59c-1.12,2-3.2,4.77-3.2,4.77A55.24,55.24,0,0,1,43.64,82a7,7,0,0,1-1.43,2,22.93,22.93,0,0,0,7.32-2.26C52.45,80,50.91,75.63,50.49,75Z"/></g><g id="Grupo_634" data-name="Grupo 634"><g id="Grupo_593" data-name="Grupo 593"><path id="Trazado_652" data-name="Trazado 652" class="cls-3" d="M65.58,44.61l-17.18.62a2.53,2.53,0,0,0-1.1.31l-5,2.75a2.47,2.47,0,0,0-1,3.34l.06.1,1.79,2.9a2.33,2.33,0,0,0,.92.87l10.29,5.6a2.45,2.45,0,0,0,3-.57L67.54,48.66a2.46,2.46,0,0,0-2-4Z"/></g><g id="Grupo_595" data-name="Grupo 595"><path id="Trazado_655" data-name="Trazado 655" class="cls-3" d="M84.54,74.14,76.83,89.5a2.59,2.59,0,0,1-.74.87l-4.57,3.38a2.46,2.46,0,0,1-3.44-.52L68,93.14l-1.89-2.83a2.46,2.46,0,0,1-.41-1.2L64.9,77.42a2.47,2.47,0,0,1,1.79-2.54l15-4.21a2.46,2.46,0,0,1,3,1.7A2.52,2.52,0,0,1,84.54,74.14Z"/></g><g id="Grupo_633" data-name="Grupo 633"><g id="Grupo_597" data-name="Grupo 597"><g id="Grupo_596" data-name="Grupo 596"><path id="Trazado_656" data-name="Trazado 656" class="cls-4" d="M94.21,67.5c-19.23,12.62-35,10.19-35,10.19L51.72,66.32S56,51.05,74.8,38.72A47.63,47.63,0,0,1,88,32.77c1.13-.33,2.25-.61,3.36-.85A60.15,60.15,0,0,1,98,30.85a67.88,67.88,0,0,1,18,.49,1.14,1.14,0,0,1,.93,1.31v0a62.7,62.7,0,0,1-6.47,17,56.23,56.23,0,0,1-3.62,5.68c-.67.92-1.37,1.83-2.13,2.73A47.82,47.82,0,0,1,94.21,67.5Z"/><circle id="Elipse_80" data-name="Elipse 80" class="cls-5" cx="79.91" cy="56.45" r="12.46"/><path id="Trazado_657" data-name="Trazado 657" class="cls-6" d="M90,58.4a10.13,10.13,0,0,1-6.32,7.41,11.58,11.58,0,0,1-1.42.42l-.14,0c-.3.06-.59.1-.89.14s-.47,0-.7,0a9,9,0,0,1-1,0h-.17l-.3,0a8.1,8.1,0,0,1-.86-.13l-.29-.06-.2,0a8.47,8.47,0,0,1-.86-.25,10.19,10.19,0,0,1-1.24-.52h0l-.44-.23A10.12,10.12,0,1,1,90,58.4Z"/><path id="Trazado_658" data-name="Trazado 658" class="cls-7" d="M59.17,77.68l-1.41.87-7.4-11.28,1.35-1Z"/><path id="Trazado_659" data-name="Trazado 659" class="cls-8" d="M58.19,80.34l-.8.48c-.29.18-.78-.06-1.08-.51L48.16,67.9c-.3-.46-.32-1,0-1.19l.77-.55c.28-.2.76,0,1.06.48l8.23,12.53C58.48,79.64,58.49,80.16,58.19,80.34Z"/><path id="Trazado_660" data-name="Trazado 660" class="cls-7" d="M57.08,82.88l-.51.3c-.37.22-1-.08-1.35-.66L45.7,68c-.38-.58-.41-1.25-.07-1.5l.49-.35c.34-.25.94,0,1.32.61l9.61,14.63C57.43,82,57.44,82.66,57.08,82.88Z"/><path id="Trazado_661" data-name="Trazado 661" class="cls-3" d="M110.37,49.73,98,30.85a68.4,68.4,0,0,1,18,.5,1.07,1.07,0,0,1,.87,1.23v0A62.53,62.53,0,0,1,110.37,49.73Z"/><path id="Trazado_662" data-name="Trazado 662" class="cls-7" d="M104.62,58.13,88,32.77c1.13-.33,2.25-.61,3.36-.85l15.42,23.49C106.08,56.32,105.37,57.23,104.62,58.13Z"/><path id="Trazado_663" data-name="Trazado 663" class="cls-9" d="M90,58.4l-19.8-4.11a10.11,10.11,0,0,1,19.82,4Z"/></g></g></g></g><path class="cls-10" d="M33.18,86.07s-34.76,4.79-32-13.52,31.66-35,7.34-42.87"/><path class="cls-11" d="M151.2,54.25s.47-3.07-7.23-7.87c0,0-7.1-5.2-8.64-1.18-1.31,3.42,2.46,6.66,4.81,8.28a21.11,21.11,0,0,0,4.41,2.26C147.08,56.65,150.18,56.83,151.2,54.25Z"/><path class="cls-12" d="M151.2,54.25s.47-3.07-7.23-7.87c0,0-7.1-5.2-8.64-1.18-1.31,3.42,2.46,6.66,4.81,8.28a21.11,21.11,0,0,0,4.41,2.26C147.08,56.65,150.18,56.83,151.2,54.25Z"/><path class="cls-13" d="M151.23,54s1.12-3.94-6.58-8.74c0,0-7.83-4.54-9-.39-.79,2.84,2.82,5.87,5.17,7.49a22.9,22.9,0,0,0,4.53,2.47C147.88,55.76,150.54,56,151.23,54Z"/><ellipse class="cls-14" cx="143.41" cy="49.36" rx="2.8" ry="7.17" transform="translate(25.68 144.98) rotate(-58.08)"/><path class="cls-11" d="M147.33,52.24l-1.09-.67.18-.28,1.05.65.34-.54-1.13-.7.27-.43-5.71-3.56-.18.29-1.1-.74-.4.64,1.14.71-.11.17-1.1-.68-.38.6,1.29.81s-.31.47,1.13,1.53a1.86,1.86,0,0,0,1.88.41,2,2,0,0,0,.82,1.13,2.72,2.72,0,0,0,1.7.55l1.06.66ZM142,49.45a1,1,0,0,1-.12-1.41l1.42.88S142.82,50.05,142,49.45Zm2.37,1.37a.71.71,0,0,1,0-1.18l1.21.76S145.25,51.48,144.38,50.82Z"/><path class="cls-12" d="M147.33,52.24l-1.09-.67.18-.28,1.05.65.34-.54-1.13-.7.27-.43-5.71-3.56-.18.29-1.1-.74-.4.64,1.14.71-.11.17-1.1-.68-.38.6,1.29.81s-.31.47,1.13,1.53a1.86,1.86,0,0,0,1.88.41,2,2,0,0,0,.82,1.13,2.72,2.72,0,0,0,1.7.55l1.06.66ZM142,49.45a1,1,0,0,1-.12-1.41l1.42.88S142.82,50.05,142,49.45Zm2.37,1.37a.71.71,0,0,1,0-1.18l1.21.76S145.25,51.48,144.38,50.82Z"/><path class="cls-13" d="M147.46,51.71,146.38,51l.17-.28,1,.65.34-.54-1.12-.7.26-.43-5.7-3.56-.18.29-1.11-.74-.39.64,1.13.71-.11.17-1.1-.68-.38.6,1.3.81s-.31.47,1.12,1.53a1.86,1.86,0,0,0,1.88.41,2,2,0,0,0,.83,1.13,2.69,2.69,0,0,0,1.69.55l1.06.66Zm-5.32-2.79A1,1,0,0,1,142,47.5l1.42.89S143,49.52,142.14,48.92Zm2.37,1.37a.71.71,0,0,1,0-1.18l1.22.76S145.38,51,144.51,50.29Z"/><path class="cls-15" d="M151.28,53.58s0-.28-.11-.78a7.14,7.14,0,0,0-.71-2,8.42,8.42,0,0,0-.78-1.25,11.45,11.45,0,0,0-1.11-1.27,21.33,21.33,0,0,0-3-2.4,15.33,15.33,0,0,0-6.47-2.64,4.43,4.43,0,0,0-2.09.2l-.17.07-.14.07-.12.06-.09.06c-.11.07-.17.11-.17.1l.15-.13.09-.06.12-.07.14-.08.16-.08a4.48,4.48,0,0,1,2.13-.26,14.84,14.84,0,0,1,6.55,2.63,20.83,20.83,0,0,1,3.06,2.43,10.75,10.75,0,0,1,1.11,1.29,8.62,8.62,0,0,1,.78,1.28,6.92,6.92,0,0,1,.66,2c0,.13,0,.24,0,.34a2.36,2.36,0,0,1,0,.25C151.29,53.51,151.29,53.58,151.28,53.58Z"/><path class="cls-16" d="M137.47,45.39s1.83-2.38,7.68,1.17,4.35,6.59,4.35,6.59,1.23-2.52-4.76-6.28C139.52,43.61,137.47,45.39,137.47,45.39Z"/><path class="cls-15" d="M148,51a1.44,1.44,0,0,1-.33-.19l-.86-.56-.05,0,0,0,.27-.36v.1L145,48.59c-1-.63-1.91-1.21-2.55-1.64l-.77-.51a1.31,1.31,0,0,1-.27-.21,2.13,2.13,0,0,1,.31.16c.19.1.46.26.79.46l2.58,1.6c.77.48,1.48.93,2.06,1.31l.06,0-.05.06-.27.34,0-.08.83.61A1.79,1.79,0,0,1,148,51Z"/><path class="cls-15" d="M144.59,50.4s-.07,0-.14,0a.89.89,0,0,1-.23-.24.66.66,0,0,1-.09-.33c0-.08,0-.13,0-.13s.08.18.19.37S144.61,50.36,144.59,50.4Z"/><path class="cls-15" d="M141.92,48.73s0,0-.11,0a.6.6,0,0,1-.15-.21.63.63,0,0,1,0-.26c0-.06,0-.1.06-.1s.07.15.13.3S142,48.69,141.92,48.73Z"/><path class="cls-15" d="M143.26,52.63a3.55,3.55,0,0,1-1.17-.63,3.73,3.73,0,0,1-1-.89,8.62,8.62,0,0,1,1.09.76A9.29,9.29,0,0,1,143.26,52.63Z"/><path class="cls-17" d="M135.41,48.36l0,0,.07-.09.22-.27a2.15,2.15,0,0,1,.33-.36,2.41,2.41,0,0,1-.29.4C135.59,48.22,135.43,48.38,135.41,48.36Z"/><path class="cls-17" d="M135.06,46.85l0,0,0-.07.17-.21c.14-.17.26-.3.28-.29a1.52,1.52,0,0,1-.23.32C135.21,46.74,135.08,46.87,135.06,46.85Z"/><path class="cls-17" d="M136,49.53a3,3,0,0,1,.33-.44,3.37,3.37,0,0,1,.38-.39,3.3,3.3,0,0,1-.33.43A2.45,2.45,0,0,1,136,49.53Z"/><path class="cls-17" d="M136.79,50.55a3.72,3.72,0,0,1,.36-.46,3.38,3.38,0,0,1,.4-.42,3.72,3.72,0,0,1-.36.46A2.7,2.7,0,0,1,136.79,50.55Z"/><path class="cls-17" d="M137.82,51.56a3.72,3.72,0,0,1,.36-.46,3,3,0,0,1,.39-.42,3.09,3.09,0,0,1-.35.46A3.38,3.38,0,0,1,137.82,51.56Z"/><path class="cls-17" d="M138.86,52.44a3.72,3.72,0,0,1,.36-.46,3,3,0,0,1,.39-.42,2.42,2.42,0,0,1-.35.46A3.38,3.38,0,0,1,138.86,52.44Z"/><path class="cls-17" d="M139.9,53.32a3,3,0,0,1,.36-.46,4.71,4.71,0,0,1,.39-.43,2.3,2.3,0,0,1-.35.47A3.38,3.38,0,0,1,139.9,53.32Z"/><path class="cls-17" d="M141.09,54a3,3,0,0,1,.36-.46,3.11,3.11,0,0,1,.4-.43,3.39,3.39,0,0,1-.36.47A2.7,2.7,0,0,1,141.09,54Z"/><path class="cls-17" d="M142.31,54.7a3.81,3.81,0,0,1,.35-.47,3.38,3.38,0,0,1,.4-.42,3.36,3.36,0,0,1-.35.46A4,4,0,0,1,142.31,54.7Z"/><path class="cls-17" d="M143.54,55.35a3,3,0,0,1,.36-.46,3.11,3.11,0,0,1,.4-.43,3,3,0,0,1-.36.46A2.53,2.53,0,0,1,143.54,55.35Z"/><path class="cls-17" d="M144.82,55.86a3.36,3.36,0,0,1,.35-.46,4,4,0,0,1,.4-.43,3.81,3.81,0,0,1-.35.47A3.38,3.38,0,0,1,144.82,55.86Z"/><path class="cls-17" d="M146.24,56.24a3.72,3.72,0,0,1,.36-.46,3,3,0,0,1,.39-.42,3.09,3.09,0,0,1-.35.46A3.38,3.38,0,0,1,146.24,56.24Z"/><path class="cls-17" d="M147.69,56.31a2.63,2.63,0,0,1,.32-.41,1.84,1.84,0,0,1,.36-.38,2.19,2.19,0,0,1-.32.41A1.84,1.84,0,0,1,147.69,56.31Z"/><path class="cls-17" d="M149.09,56.17a1.9,1.9,0,0,1,.31-.41,2.75,2.75,0,0,1,.36-.38,2.63,2.63,0,0,1-.32.41A2.41,2.41,0,0,1,149.09,56.17Z"/><circle class="cls-11" cx="130.32" cy="21.71" r="7.26"/><circle class="cls-14" cx="130.32" cy="21.71" r="7.26"/><path class="cls-17" d="M128.05,14.81a1.58,1.58,0,0,1,.39.19,1.39,1.39,0,0,1,.36.26,1.79,1.79,0,0,1-.39-.19A1.39,1.39,0,0,1,128.05,14.81Z"/><path class="cls-17" d="M129.27,14.55a1.09,1.09,0,0,1,.38.18A1.15,1.15,0,0,1,130,15a1.09,1.09,0,0,1-.38-.18A1.78,1.78,0,0,1,129.27,14.55Z"/><path class="cls-17" d="M130.49,14.45a1.84,1.84,0,0,1,.38.18,1.14,1.14,0,0,1,.34.25,1.84,1.84,0,0,1-.38-.18A1.14,1.14,0,0,1,130.49,14.45Z"/><path class="cls-17" d="M126.88,15.31a1.36,1.36,0,0,1,.39.19,1.52,1.52,0,0,1,.36.25,1.1,1.1,0,0,1-.39-.19A1.24,1.24,0,0,1,126.88,15.31Z"/><path class="cls-17" d="M125.9,16a1.79,1.79,0,0,1,.39.19,1.39,1.39,0,0,1,.36.26,1.74,1.74,0,0,1-.4-.19C126.05,16.08,125.88,16,125.9,16Z"/><path class="cls-17" d="M125,16.76a1.36,1.36,0,0,1,.39.18,1.24,1.24,0,0,1,.36.25,1.36,1.36,0,0,1-.39-.18A1.24,1.24,0,0,1,125,16.76Z"/><path class="cls-17" d="M124.3,17.61a1.35,1.35,0,0,1,.4.19,1.24,1.24,0,0,1,.36.25,1.35,1.35,0,0,1-.4-.19A1.83,1.83,0,0,1,124.3,17.61Z"/><path class="cls-17" d="M123.73,18.62a1.25,1.25,0,0,1,.39.19,1.52,1.52,0,0,1,.36.25,1.1,1.1,0,0,1-.39-.19A1.24,1.24,0,0,1,123.73,18.62Z"/><path class="cls-17" d="M123.33,19.69a1.18,1.18,0,0,1,.4.18,1.39,1.39,0,0,1,.36.26,1.74,1.74,0,0,1-.4-.19A1.52,1.52,0,0,1,123.33,19.69Z"/><path class="cls-17" d="M123.11,20.69a1.1,1.1,0,0,1,.4.19,1.24,1.24,0,0,1,.36.25,1.74,1.74,0,0,1-.4-.19A1.52,1.52,0,0,1,123.11,20.69Z"/><path class="cls-17" d="M123.09,21.81a1.35,1.35,0,0,1,.41.2,1.3,1.3,0,0,1,.37.26,1.72,1.72,0,0,1-.41-.2A1.57,1.57,0,0,1,123.09,21.81Z"/><path class="cls-17" d="M123.18,23a1.47,1.47,0,0,1,.41.19,2,2,0,0,1,.37.26,1.47,1.47,0,0,1-.41-.19A2,2,0,0,1,123.18,23Z"/><path class="cls-17" d="M123.45,24.07a1.76,1.76,0,0,1,.42.18,1.22,1.22,0,0,1,.39.23,2,2,0,0,1-.43-.17A1.22,1.22,0,0,1,123.45,24.07Z"/><path class="cls-17" d="M124,25.2a2.38,2.38,0,0,1,.46.23,2,2,0,0,1,.41.28,1.63,1.63,0,0,1-.45-.22A1.69,1.69,0,0,1,124,25.2Z"/><path class="cls-17" d="M124.91,26.56a1.71,1.71,0,0,1,.49.23,2,2,0,0,1,.45.3,2.47,2.47,0,0,1-.49-.24A2.14,2.14,0,0,1,124.91,26.56Z"/><circle class="cls-11" cx="131.13" cy="22.1" r="7.26"/><ellipse class="cls-14" cx="131.06" cy="22.06" rx="5.53" ry="5.4" transform="translate(11.62 80.34) rotate(-35.56)"/><path class="cls-15" d="M134.19,26.43a5.52,5.52,0,0,1-7.62-1.16l.08.13a5.53,5.53,0,0,0,9-6.43,1.13,1.13,0,0,1-.1-.13A5.53,5.53,0,0,1,134.19,26.43Z"/><path class="cls-18" d="M127.94,17.69a5.53,5.53,0,0,1,7.62,1.15l-.09-.13a5.53,5.53,0,1,0-9,6.44l.1.12A5.52,5.52,0,0,1,127.94,17.69Z"/><g class="cls-19"><path d="M131.74,22.81l-3.16.31-.6-.18-.22-5.12.59-.12L133.08,20Zm.49-2.83-3.82-1.81.07.29.21-.25,2.42,1.14"/><path d="M133.74,26.12l-5.7-2.4,3.62-.29,1.47-2.89.6.19Z"/></g><path class="cls-11" d="M128.35,17.7l.23,5.42,3.24-.2,1.44-2.9Z"/><path class="cls-11" d="M133.74,25.85l-5-2.12,3.55-.11,1.47-2.89Z"/><path class="cls-5" d="M128.57,22.77a1.5,1.5,0,0,1-.42-1,1.52,1.52,0,0,1,.33-1,1.54,1.54,0,0,1,.42,1A1.48,1.48,0,0,1,128.57,22.77Z"/><path class="cls-5" d="M128.42,19.32a9.11,9.11,0,0,1-.36-1.61l-.06-.45.48.17a17.65,17.65,0,0,1,2.22,1,10.89,10.89,0,0,1,2.05,1.36,11.45,11.45,0,0,1-2.35-.72,17.67,17.67,0,0,1-2.17-1.1l.41-.28A9.11,9.11,0,0,1,128.42,19.32Z"/><path class="cls-5" d="M133.74,25.85a10,10,0,0,1-5-2.12,9.09,9.09,0,0,1,2.66.71A9.28,9.28,0,0,1,133.74,25.85Z"/><path class="cls-20" d="M41.71,7.61S46,4.16,60.2,11.66c0,0,14.29,6.22,9.51,12.17-4.06,5.05-12.38,2.18-17,0a37.89,37.89,0,0,1-7.39-4.73C41.7,16.07,38.66,11.48,41.71,7.61Z"/><path class="cls-16" d="M41.71,7.61S46,4.16,60.2,11.66c0,0,14.29,6.22,9.51,12.17-4.06,5.05-12.38,2.18-17,0a37.89,37.89,0,0,1-7.39-4.73C41.7,16.07,38.66,11.48,41.71,7.61Z"/><path class="cls-20" d="M42,7.36s5-5.23,19.24,2.27c0,0,13.94,7.95,8.64,13.43-3.64,3.75-11.51.92-16.09-1.23A41,41,0,0,1,46,17.11C42.35,14.05,39.65,10.16,42,7.36Z"/><ellipse class="cls-14" cx="56.14" cy="15.17" rx="4.96" ry="12.71" transform="translate(16.51 57.73) rotate(-62.16)"/><path class="cls-20" d="M63.9,18.16,62,17.05a4.8,4.8,0,0,0-2.28-2.18,3.41,3.41,0,0,0-2.45-.34s0-1.56-2.21-2.6c-2.85-1.36-3.34-.47-3.34-.47l-2.34-1.35-.63,1.09,2,1.15-.19.32-2-1.18-.67,1.15,2.08,1.11-.3.52,10.33,5.94.45-.78,2,1.17.57-1-1.9-1.1.29-.5,1.89,1.09Zm-9.12-2.5-2.57-1.48a1.68,1.68,0,0,1,2.31-1C56.13,13.94,54.78,15.66,54.78,15.66ZM59,18,56.78,16.7a1.26,1.26,0,0,1,1.86-1C60.41,16.53,59,18,59,18Z"/><path class="cls-16" d="M63.9,18.16,62,17.05a4.8,4.8,0,0,0-2.28-2.18,3.41,3.41,0,0,0-2.45-.34s0-1.56-2.21-2.6c-2.85-1.36-3.34-.47-3.34-.47l-2.34-1.35-.63,1.09,2,1.15-.19.32-2-1.18-.67,1.15,2.08,1.11-.3.52,10.33,5.94.45-.78,2,1.17.57-1-1.9-1.1.29-.5,1.89,1.09Zm-9.12-2.5-2.57-1.48a1.68,1.68,0,0,1,2.31-1C56.13,13.94,54.78,15.66,54.78,15.66ZM59,18,56.78,16.7a1.26,1.26,0,0,1,1.86-1C60.41,16.53,59,18,59,18Z"/><path class="cls-20" d="M64.37,17.32l-1.92-1.1A4.79,4.79,0,0,0,60.17,14a3.48,3.48,0,0,0-2.45-.34s0-1.56-2.2-2.59c-2.86-1.36-3.34-.48-3.34-.48L49.83,9.27l-.63,1.1,2,1.15-.19.32-2-1.18-.66,1.15,2.07,1.1-.3.52L60.4,19.37l.45-.77,2,1.17.57-1-1.9-1.09.29-.51,2,1.13Zm-9.12-2.5-2.57-1.48a1.69,1.69,0,0,1,2.31-1C56.61,13.11,55.25,14.82,55.25,14.82Zm4.21,2.31-2.2-1.27a1.25,1.25,0,0,1,1.85-1C60.88,15.7,59.46,17.13,59.46,17.13Z"/><path class="cls-15" d="M42.65,6.89a1.64,1.64,0,0,1,.31-.2,2.59,2.59,0,0,1,.38-.21,5.87,5.87,0,0,1,.55-.25,12.11,12.11,0,0,1,3.74-.85,15.84,15.84,0,0,1,2.65,0,18.19,18.19,0,0,1,3,.55,35.41,35.41,0,0,1,6.46,2.51,26,26,0,0,1,9.87,7.73,7.72,7.72,0,0,1,1.49,3.52l0,.33v.28a1.89,1.89,0,0,1,0,.44c0,.24-.06.36-.08.36s0-.51-.1-1.38a8,8,0,0,0-1.58-3.35,27.3,27.3,0,0,0-9.8-7.49,38.81,38.81,0,0,0-6.37-2.51,18.82,18.82,0,0,0-2.92-.58,15.5,15.5,0,0,0-2.59-.1A13.13,13.13,0,0,0,44,6.41C43.12,6.7,42.67,6.93,42.65,6.89Z"/><path class="cls-16" d="M67.52,20.72s2-4.92-8.64-10.7-14-.78-14-.78,2.76-4.14,13.86,1.68C68.41,16,67.52,20.72,67.52,20.72Z"/><path class="cls-17" d="M64.8,26.52c-.06,0,0-.4.2-.85a2.61,2.61,0,0,1,.38-.8,2.28,2.28,0,0,1-.22.85A3.27,3.27,0,0,1,64.8,26.52Z"/><path class="cls-17" d="M67.43,25.71c-.06,0,0-.33.14-.69s.28-.65.33-.63a1.73,1.73,0,0,1-.17.68A2.25,2.25,0,0,1,67.43,25.71Z"/><path class="cls-17" d="M62.48,26.63a2.59,2.59,0,0,1,.24-.94,2.69,2.69,0,0,1,.39-.87,2.56,2.56,0,0,1-.24.93A3,3,0,0,1,62.48,26.63Z"/><path class="cls-17" d="M60.21,26.37a3.39,3.39,0,0,1,.27-1,3.54,3.54,0,0,1,.42-.95,3.39,3.39,0,0,1-.27,1A3.21,3.21,0,0,1,60.21,26.37Z"/><path class="cls-17" d="M57.75,25.7a3.47,3.47,0,0,1,.27-1,3.21,3.21,0,0,1,.42-.94,3.45,3.45,0,0,1-.27,1A3.21,3.21,0,0,1,57.75,25.7Z"/><path class="cls-17" d="M55.48,24.89a3.26,3.26,0,0,1,.26-1,3.21,3.21,0,0,1,.42-.94,3,3,0,0,1-.26,1A3.57,3.57,0,0,1,55.48,24.89Z"/><path class="cls-17" d="M53.21,24.08a3,3,0,0,1,.26-1,3.21,3.21,0,0,1,.42-.94,3.33,3.33,0,0,1-.26,1A3.38,3.38,0,0,1,53.21,24.08Z"/><path class="cls-17" d="M51.07,22.88a3.47,3.47,0,0,1,.27-1,2.94,2.94,0,0,1,.42-.95,3.39,3.39,0,0,1-.27,1A3.54,3.54,0,0,1,51.07,22.88Z"/><path class="cls-17" d="M49,21.62a3.55,3.55,0,0,1,.27-1,3.38,3.38,0,0,1,.42-.94,3.55,3.55,0,0,1-.27,1A3.08,3.08,0,0,1,49,21.62Z"/><path class="cls-17" d="M46.85,20.31a3.55,3.55,0,0,1,.27-1,3.38,3.38,0,0,1,.42-.94,3.55,3.55,0,0,1-.27,1A3.08,3.08,0,0,1,46.85,20.31Z"/><path class="cls-17" d="M44.93,18.82a3.55,3.55,0,0,1,.27-1,2.7,2.7,0,0,1,.42-.94,3.55,3.55,0,0,1-.27,1A3.38,3.38,0,0,1,44.93,18.82Z"/><path class="cls-17" d="M43.08,17a3,3,0,0,1,.26-1,3.57,3.57,0,0,1,.42-.94,3,3,0,0,1-.26,1A3.21,3.21,0,0,1,43.08,17Z"/><path class="cls-17" d="M41.67,14.82a2.64,2.64,0,0,1,.23-.89,2.37,2.37,0,0,1,.39-.84,2.74,2.74,0,0,1-.23.89A2.37,2.37,0,0,1,41.67,14.82Z"/><path class="cls-17" d="M40.65,12.56a2.74,2.74,0,0,1,.23-.89,2.85,2.85,0,0,1,.38-.84,2.64,2.64,0,0,1-.23.89A2.7,2.7,0,0,1,40.65,12.56Z"/><path class="cls-15" d="M54.53,12.31c-.05.13-.29.15-.55.17s-.49,0-.57-.07,0-.15.09-.24a.75.75,0,0,1,.44-.18.73.73,0,0,1,.47.1C54.52,12.17,54.56,12.25,54.53,12.31Z"/><path class="cls-15" d="M59.05,14.92c-.08.11-.34.07-.62.05s-.55,0-.61-.15,0-.15.14-.23a.84.84,0,0,1,.51-.11.79.79,0,0,1,.48.2C59.06,14.77,59.09,14.87,59.05,14.92Z"/><path class="cls-15" d="M55.78,11.23s-.11,0-.27,0L54.86,11a6.16,6.16,0,0,0-1-.28,3,3,0,0,0-1.15,0,1.23,1.23,0,0,0-.23.08.52.52,0,0,0-.17.09l-.16.11-.13-.08a8.28,8.28,0,0,1-2.23-1.56,8.84,8.84,0,0,1,2.47,1.14l-.29,0a1,1,0,0,1,.31-.2,1.7,1.7,0,0,1,.32-.1,2.82,2.82,0,0,1,1.37.08,4.42,4.42,0,0,1,1,.4,3.92,3.92,0,0,1,.6.39Q55.81,11.19,55.78,11.23Z"/><path class="cls-20" d="M110.08.28s3.38,2.22,1.33,13.83c0,0-1.13,11.39-6.36,9.39-4.45-1.71-4.31-8.17-3.84-11.85a27.93,27.93,0,0,1,1.65-6.23C104.17,2.18,106.7-1,110.08.28Z"/><path class="cls-16" d="M110.08.28s3.38,2.22,1.33,13.83c0,0-1.13,11.39-6.36,9.39-4.45-1.71-4.31-8.17-3.84-11.85a27.93,27.93,0,0,1,1.65-6.23C104.17,2.18,106.7-1,110.08.28Z"/><path class="cls-20" d="M110.33.46s4.79,2.33,2.74,13.94c0,0-2.42,11.53-7.44,9.06-3.44-1.7-3.23-7.83-2.76-11.52a30.21,30.21,0,0,1,1.55-6.52C105.73,2.18,107.84-.58,110.33.46Z"/><ellipse class="cls-14" cx="108.05" cy="12.06" rx="9.33" ry="3.64" transform="translate(77.4 116.37) rotate(-79.99)"/><path class="cls-20" d="M107.7,18.16l.34-1.59a3.53,3.53,0,0,0,1-2.08,2.5,2.5,0,0,0-.32-1.79,2.41,2.41,0,0,0,1.32-2.13c.31-2.3-.42-2.44-.42-2.44l.42-1.94L109.15,6l-.35,1.65-.27-.06.37-1.7-1-.2-.3,1.7-.43-.1-1.83,8.56L106,16l-.36,1.69.82.17.33-1.57.42.09-.33,1.57Zm-.3-6.94.46-2.12s1.39.09,1.22,1.39S107.4,11.22,107.4,11.22Zm-.67,3.47.39-1.83s1.24-.15,1.1,1.08C108.05,15.35,106.73,14.69,106.73,14.69Z"/><path class="cls-16" d="M107.7,18.16l.34-1.59a3.53,3.53,0,0,0,1-2.08,2.5,2.5,0,0,0-.32-1.79,2.41,2.41,0,0,0,1.32-2.13c.31-2.3-.42-2.44-.42-2.44l.42-1.94L109.15,6l-.35,1.65-.27-.06.37-1.7-1-.2-.3,1.7-.43-.1-1.83,8.56L106,16l-.36,1.69.82.17.33-1.57.42.09-.33,1.57Zm-.3-6.94.46-2.12s1.39.09,1.22,1.39S107.4,11.22,107.4,11.22Zm-.67,3.47.39-1.83s1.24-.15,1.1,1.08C108.05,15.35,106.73,14.69,106.73,14.69Z"/><path class="cls-20" d="M108.39,18.3l.34-1.59a3.49,3.49,0,0,0,1-2.08,2.5,2.5,0,0,0-.32-1.79,2.41,2.41,0,0,0,1.32-2.13c.31-2.3-.42-2.43-.42-2.43l.42-1.95-.91-.19-.35,1.65-.27,0,.37-1.7-1-.21-.3,1.7-.43-.09L106.07,16l.64.14-.36,1.68.82.18.33-1.58.42.09-.35,1.62Zm-.3-6.93.46-2.13s1.39.09,1.22,1.39S108.09,11.37,108.09,11.37Zm-.67,3.46.39-1.83s1.24-.15,1.1,1.08C108.74,15.5,107.42,14.83,107.42,14.83Z"/><path class="cls-15" d="M110.8.78A1.07,1.07,0,0,1,111,1a1.53,1.53,0,0,1,.23.22l.3.33A8.86,8.86,0,0,1,113,3.92a11,11,0,0,1,.57,1.86A13.7,13.7,0,0,1,113.83,8a26.43,26.43,0,0,1-.3,5.08,19.19,19.19,0,0,1-3.18,8.63,5.53,5.53,0,0,1-2.13,1.83l-.22.1-.2.06a1.63,1.63,0,0,1-.31.07.93.93,0,0,1-.27,0s.36-.09.94-.38a5.83,5.83,0,0,0,2-1.86,19.82,19.82,0,0,0,3-8.53,27.69,27.69,0,0,0,.33-5,14.36,14.36,0,0,0-.25-2.17A12,12,0,0,0,112.73,4a9.51,9.51,0,0,0-1.3-2.42C111,1.06,110.78.81,110.8.78Z"/><path class="cls-16" d="M106.72,21.27s3.89.3,5.54-8.45-2.59-9.94-2.59-9.94,3.51,1,1.93,10.06C110.23,20.83,106.72,21.27,106.72,21.27Z"/><path class="cls-17" d="M102.06,20.67c0-.05.29-.06.64-.05a1.43,1.43,0,0,1,.64.09,2,2,0,0,1-.64,0A2.42,2.42,0,0,1,102.06,20.67Z"/><path class="cls-17" d="M103.22,22.32s.23-.06.51-.05a1.23,1.23,0,0,1,.52.08s-.24,0-.52,0A1.56,1.56,0,0,1,103.22,22.32Z"/><path class="cls-17" d="M101.46,19.07a4.24,4.24,0,0,1,1.42,0,2.33,2.33,0,0,1-.71,0A2.26,2.26,0,0,1,101.46,19.07Z"/><path class="cls-17" d="M101.14,17.43a2.25,2.25,0,0,1,.76,0,2.52,2.52,0,0,1,.75.08,2.6,2.6,0,0,1-.76,0A2.52,2.52,0,0,1,101.14,17.43Z"/><path class="cls-17" d="M101.05,15.56a2.6,2.6,0,0,1,.76,0,2.39,2.39,0,0,1,.75.08,4.8,4.8,0,0,1-1.51,0Z"/><path class="cls-17" d="M101.11,13.79a4.8,4.8,0,0,1,1.51,0,2.6,2.6,0,0,1-.76,0A2.46,2.46,0,0,1,101.11,13.79Z"/><path class="cls-17" d="M101.16,12a2.6,2.6,0,0,1,.76,0,2.46,2.46,0,0,1,.75.08,4.8,4.8,0,0,1-1.51,0Z"/><path class="cls-17" d="M101.52,10.26a2.25,2.25,0,0,1,.76,0,2.46,2.46,0,0,1,.75.08,4.8,4.8,0,0,1-1.51,0Z"/><path class="cls-17" d="M101.92,8.5a2,2,0,0,1,.76,0,2.22,2.22,0,0,1,.76.08,2.65,2.65,0,0,1-.76,0A2.56,2.56,0,0,1,101.92,8.5Z"/><path class="cls-17" d="M102.37,6.73a2.6,2.6,0,0,1,.76,0,2.34,2.34,0,0,1,.75.09,2.42,2.42,0,0,1-.76,0A2.14,2.14,0,0,1,102.37,6.73Z"/><path class="cls-17" d="M103,5.05a2.38,2.38,0,0,1,.75,0,2.22,2.22,0,0,1,.76.08,2.6,2.6,0,0,1-.76,0A2.28,2.28,0,0,1,103,5.05Z"/><path class="cls-17" d="M103.84,3.35a2.25,2.25,0,0,1,.76,0,2.56,2.56,0,0,1,.76.08,2.65,2.65,0,0,1-.76,0A2.56,2.56,0,0,1,103.84,3.35Z"/><path class="cls-17" d="M105,1.88a2.07,2.07,0,0,1,.68,0,2,2,0,0,1,.67.08,2.07,2.07,0,0,1-.68,0A2,2,0,0,1,105,1.88Z"/><path class="cls-17" d="M106.39.66a1.76,1.76,0,0,1,.67,0,1.65,1.65,0,0,1,.67.08,2,2,0,0,1-.67,0A2,2,0,0,1,106.39.66Z"/><path class="cls-15" d="M109.68,10.3c-.1,0-.16-.17-.24-.34s-.14-.34-.08-.42.1,0,.19,0a.58.58,0,0,1,.23.27.63.63,0,0,1,0,.35C109.78,10.26,109.73,10.31,109.68,10.3Z"/><path class="cls-15" d="M108.87,14c-.09,0-.12-.22-.17-.42s-.11-.39,0-.46.11,0,.19.05a.56.56,0,0,1,.19.33.53.53,0,0,1,0,.38C109,14,108.92,14.06,108.87,14Z"/><path class="cls-15" d="M110.72,10.93s0-.07,0-.2l0-.51a6.25,6.25,0,0,0,0-.73,2,2,0,0,0-.24-.81.56.56,0,0,0-.1-.15l-.1-.1-.12-.08,0-.11a6.35,6.35,0,0,1,.59-1.91,6.21,6.21,0,0,1-.24,2l-.09-.19a.88.88,0,0,1,.2.17,1,1,0,0,1,.15.2,2,2,0,0,1,.25,1,3.13,3.13,0,0,1-.06.79,2.54,2.54,0,0,1-.14.51C110.78,10.88,110.74,10.94,110.72,10.93Z"/></svg>