<svg id="Capa_1" data-name="Capa 1" xmlns="http://www.w3.org/2000/svg" viewBox="0 0 100 100"><defs><style>.cls-1{fill:#a3a3a3;}</style></defs><title>enviar</title><path class="cls-1" d="M85.83,41.29,55,2.8a6.29,6.29,0,0,0-10.24.74L13.73,55.12a6.27,6.27,0,0,0,.44,7.2l26.32,33a11.19,11.19,0,0,0,8.74,4.2l.72,0a11.22,11.22,0,0,0,8.86-5.39L86.3,48.45A6.29,6.29,0,0,0,85.83,41.29Zm-26.26,16h0a2.22,2.22,0,0,1-2.22-2.19l-.17-13.77L42.28,68.17A2.22,2.22,0,0,1,38.4,66L52.87,39.88l-10.2,6.85a2.22,2.22,0,0,1-2.47-3.68L58,31.07s.12,0,.17-.06a2.39,2.39,0,0,1,.78-.26,1.56,1.56,0,0,1,.31,0,2.25,2.25,0,0,1,.91.19s.07,0,.1,0h0a2.22,2.22,0,0,1,.75.71c0,.08.08.16.12.24a2.18,2.18,0,0,1,.23.79c0,.06.05.11.05.17L61.76,55A2.22,2.22,0,0,1,59.57,57.27Z"/></svg>