<svg id="Capa_1" data-name="Capa 1" xmlns="http://www.w3.org/2000/svg" viewBox="0 0 100 100"><defs><style>.cls-1{fill:#a3a3a3;}</style></defs><title>Exchange</title><path class="cls-1" d="M37.56,91.38a9,9,0,0,1-7-3.37L9.4,61.51a5,5,0,0,1-.35-5.78L34,14.29a5,5,0,0,1,8.22-.59L67,44.62a5.07,5.07,0,0,1,.37,5.76L45.26,87a9,9,0,0,1-7.12,4.33ZM15.84,58.21,36.09,83.58a1.89,1.89,0,0,0,3.09-.21L60.53,47.93l-22-27.45Zm-.71,1.18,0,0Z"/><path class="cls-1" d="M88,40.52,65.84,77.19a5.41,5.41,0,0,1-8.89.58L51.1,70.44l13.21-21.9a1.51,1.51,0,0,0-.12-1.71L48.89,27.69,60.69,8.1a1.49,1.49,0,0,1,2.43-.16L87.83,38.83A1.5,1.5,0,0,1,88,40.52Z"/><path class="cls-1" d="M2.63,29a2.13,2.13,0,0,1-1.51-3.63l16-16.08a2.13,2.13,0,0,1,3,3l-16,16.08A2.12,2.12,0,0,1,2.63,29Z"/><path class="cls-1" d="M17.57,29H2.63A2.13,2.13,0,0,1,.5,26.84V12.32a2.13,2.13,0,1,1,4.26,0V24.71H17.57a2.13,2.13,0,0,1,0,4.26Z"/><path class="cls-1" d="M81.29,92.61A2.18,2.18,0,0,1,79.77,92a2.15,2.15,0,0,1,0-3L95.87,73a2.13,2.13,0,0,1,3,3L82.79,92A2.14,2.14,0,0,1,81.29,92.61Z"/><path class="cls-1" d="M97.37,91.57a2.13,2.13,0,0,1-2.13-2.13V76.63H82.85a2.13,2.13,0,1,1,0-4.25H97.37a2.13,2.13,0,0,1,2.13,2.13V89.44A2.13,2.13,0,0,1,97.37,91.57Z"/></svg>