<svg id="Capa_1" data-name="Capa 1" xmlns="http://www.w3.org/2000/svg" viewBox="0 0 100 100"><defs><style>.cls-1{fill:#fff;}</style></defs><title>mas</title><path class="cls-1" d="M50,.5A49.5,49.5,0,1,0,99.5,50,49.5,49.5,0,0,0,50,.5ZM70.66,52.81a3.78,3.78,0,0,1-2.81,1.12H53.93V67.76a4,4,0,0,1-1.12,2.85,4,4,0,0,1-5.62,0,3.92,3.92,0,0,1-1.12-2.85V53.93H32.15a4,4,0,0,1-2.81-6.74,3.82,3.82,0,0,1,2.81-1.12H46.07V32.15a4,4,0,0,1,6.74-2.81,3.84,3.84,0,0,1,1.12,2.81V46.07H67.85a4,4,0,0,1,2.81,6.74Z"/></svg>