<svg id="Capa_1" data-name="Capa 1" xmlns="http://www.w3.org/2000/svg" xmlns:xlink="http://www.w3.org/1999/xlink" viewBox="0 0 100 100"><defs><style>.cls-1{fill:#dcdce2;}.cls-2{fill:url(#Degradado_sin_nombre_4);}</style><linearGradient id="Degradado_sin_nombre_4" x1="49.99" y1="12.43" x2="49.99" y2="90.49" gradientUnits="userSpaceOnUse"><stop offset="0" stop-color="#cdcdcd"/><stop offset="1" stop-color="#4f4f4f"/></linearGradient></defs><title>mastercard</title><g id="Layer_2" data-name="Layer 2"><g id="Layer_1-2" data-name="Layer 1-2"><path class="cls-1" d="M19.36,87.72v-5a2.94,2.94,0,0,0-2.73-3.14,2.41,2.41,0,0,0-.38,0A3.07,3.07,0,0,0,13.47,81a2.88,2.88,0,0,0-2.61-1.4,2.61,2.61,0,0,0-2.31,1.17v-1H6.83v7.9H8.56V83.37a1.84,1.84,0,0,1,1.59-2.08,2,2,0,0,1,.35,0c1.14,0,1.72.75,1.72,2.09v4.39H14V83.37a1.86,1.86,0,0,1,1.61-2.08,1.83,1.83,0,0,1,.33,0c1.17,0,1.73.75,1.73,2.09v4.39Zm25.69-7.9H42.22v-2.4H40.49v2.4H38.91v1.57h1.61V85c0,1.83.71,2.92,2.74,2.92a4.07,4.07,0,0,0,2.15-.61l-.49-1.47a3.28,3.28,0,0,1-1.52.45c-.83,0-1.15-.53-1.15-1.33v-3.6h2.82Zm14.67-.2a2.32,2.32,0,0,0-2.09,1.16v-1h-1.7v7.9h1.72V83.29c0-1.31.56-2,1.65-2a2.83,2.83,0,0,1,1.08.19l.53-1.65a3.7,3.7,0,0,0-1.23-.21Zm-22.18.83a5.88,5.88,0,0,0-3.22-.83c-2,0-3.31,1-3.31,2.53,0,1.29,1,2.08,2.73,2.33l.83.12c.94.13,1.38.38,1.38.82,0,.61-.62,1-1.8,1a4.17,4.17,0,0,1-2.63-.83l-.82,1.34a5.72,5.72,0,0,0,3.42,1c2.28,0,3.6-1.08,3.6-2.58S36.68,83.22,35,83l-.82-.12c-.75-.1-1.34-.25-1.34-.78s.56-.92,1.5-.92a5.12,5.12,0,0,1,2.48.67Zm46.06-.83a2.32,2.32,0,0,0-2.08,1.16v-1H79.81v7.9h1.72V83.29c0-1.31.57-2,1.66-2a2.78,2.78,0,0,1,1.07.19l.53-1.65a3.6,3.6,0,0,0-1.22-.21ZM61.44,83.75a4,4,0,0,0,3.85,4.14h.37a4.13,4.13,0,0,0,2.84-1l-.82-1.39a3.46,3.46,0,0,1-2.07.72,2.54,2.54,0,0,1,0-5.06,3.39,3.39,0,0,1,2.07.71l.82-1.39a4.07,4.07,0,0,0-2.84-.94,4,4,0,0,0-4.21,3.76c0,.12,0,.25,0,.37Zm16.11,0V79.82H75.83v1a3,3,0,0,0-2.48-1.16,4.14,4.14,0,0,0,0,8.27,3,3,0,0,0,2.48-1.16v1h1.72Zm-6.4,0a2.39,2.39,0,1,1,2.4,2.53,2.36,2.36,0,0,1-2.4-2.34A1.21,1.21,0,0,1,71.15,83.75ZM50.4,79.62a4.14,4.14,0,1,0,.11,8.27h0a4.86,4.86,0,0,0,3.29-1.08L53,85.54a3.83,3.83,0,0,1-2.3.83,2.19,2.19,0,0,1-2.36-1.94h5.87v-.66c0-2.48-1.54-4.13-3.76-4.13Zm0,1.54a2,2,0,0,1,2,1.91H48.27a2,2,0,0,1,2.1-1.91Zm43.08,2.61V76.64H91.83v4.14a3,3,0,0,0-2.48-1.16,4.14,4.14,0,1,0,0,8.27,3,3,0,0,0,2.48-1.16v1h1.65Zm2.87,2.8a.81.81,0,0,1,.31.06.76.76,0,0,1,.26.16,1,1,0,0,1,.17.25.72.72,0,0,1,0,.61.74.74,0,0,1-.17.25.81.81,0,0,1-.57.23.8.8,0,0,1-.74-.48.72.72,0,0,1,0-.61,1,1,0,0,1,.17-.25.76.76,0,0,1,.26-.16.93.93,0,0,1,.34-.06Zm0,1.4a.69.69,0,0,0,.24,0,.64.64,0,0,0,.19-.13.63.63,0,0,0,0-.83.5.5,0,0,0-.19-.13.6.6,0,0,0-.48,0,.58.58,0,0,0-.2,1,.86.86,0,0,0,.2.13.59.59,0,0,0,.27,0Zm.05-1a.3.3,0,0,1,.22.06.22.22,0,0,1,.07.17.2.2,0,0,1-.06.15.3.3,0,0,1-.17.08l.24.27h-.19l-.23-.27h-.07v.27h-.16V87Zm-.18.14v.19h.18a.17.17,0,0,0,.1,0,.09.09,0,0,0,0-.07.09.09,0,0,0,0-.07.17.17,0,0,0-.1,0Zm-9.1-3.36a2.39,2.39,0,1,1,2.4,2.53A2.37,2.37,0,0,1,87.12,84Zm-58.06,0v-4H27.34v1a3,3,0,0,0-2.48-1.16,4.14,4.14,0,0,0,0,8.27,3,3,0,0,0,2.48-1.16v1h1.72Zm-6.4,0a2.22,2.22,0,1,1,0,.2v-.2Z"/><path class="cls-2" d="M50,68.11l-.83-.66a31.13,31.13,0,0,1,0-48.93l.83-.65.84.65a31.11,31.11,0,0,1,0,48.93Zm0-46.78a28.44,28.44,0,0,0,0,43.32,28.41,28.41,0,0,0,0-43.32Z"/><path class="cls-1" d="M31.6,74.12a31.12,31.12,0,1,1,19.23-55.6l1.35,1.06-1.35,1.07a28.42,28.42,0,0,0,0,44.68l1.35,1.06-1.35,1.06A31,31,0,0,1,31.6,74.12Zm0-59.53A28.41,28.41,0,1,0,47.81,66.33a31.13,31.13,0,0,1,0-46.68A28.26,28.26,0,0,0,31.63,14.59Z"/><path class="cls-1" d="M68.39,74.11a31.23,31.23,0,0,1-19.23-6.66l-1.35-1.06,1.35-1.06a28.45,28.45,0,0,0,4.78-39.9,27.72,27.72,0,0,0-4.78-4.78l-1.35-1.07,1.35-1.06a31.12,31.12,0,0,1,43.69,5.23A31.27,31.27,0,0,1,99.5,43h0A31.15,31.15,0,0,1,68.39,74.11ZM52.18,66.33A28.41,28.41,0,0,0,96.8,43h0a28.58,28.58,0,0,0-6.07-17.57,28.41,28.41,0,0,0-38.55-5.77,31.49,31.49,0,0,1,3.89,4.11A31.17,31.17,0,0,1,52.18,66.33Z"/></g></g></svg>