<svg id="Capa_1" data-name="Capa 1" xmlns="http://www.w3.org/2000/svg" viewBox="0 0 100 100"><defs><style>.cls-1{fill:#a3a3a3;}</style></defs><title>Recibir</title><path class="cls-1" d="M85.83,41.29,55,2.8a6.29,6.29,0,0,0-10.24.74L13.73,55.12a6.27,6.27,0,0,0,.44,7.2l26.32,33a11.19,11.19,0,0,0,8.74,4.2l.72,0a11.22,11.22,0,0,0,8.86-5.39L86.3,48.45A6.29,6.29,0,0,0,85.83,41.29ZM61.49,34,47,60.12l10.2-6.85A2.22,2.22,0,0,1,59.69,57l-17.83,12-.09,0-.13.07a2.32,2.32,0,0,1-1,.27h0l-.06,0a2.07,2.07,0,0,1-1-.23l0,0s0,0,0,0a2.13,2.13,0,0,1-.75-.71c0-.08-.08-.16-.12-.24a2.18,2.18,0,0,1-.23-.79c0-.06-.05-.11-.05-.17L38.13,45a2.21,2.21,0,0,1,2.18-2.25h0a2.22,2.22,0,0,1,2.22,2.19l.17,13.77L57.61,31.84A2.22,2.22,0,0,1,61.49,34Z"/></svg>