<svg id="Capa_1" data-name="Capa 1" xmlns="http://www.w3.org/2000/svg" viewBox="0 0 100 100"><defs><style>.cls-1{fill:#cacbce;}</style></defs><title>settings</title><path class="cls-1" d="M50,63.14A13.14,13.14,0,1,1,63.14,50,13.16,13.16,0,0,1,50,63.14Zm0-23.37A10.23,10.23,0,1,0,60.22,50,10.24,10.24,0,0,0,50,39.77Z"/><path class="cls-1" d="M55.09,99.5H44.72a7.87,7.87,0,0,1-7.86-7.86V83l-1.07-.44L29.71,88.6a7.87,7.87,0,0,1-11.12,0l-7.32-7.33a7.86,7.86,0,0,1,0-11.12L17.4,64c-.15-.35-.3-.71-.44-1.08H8.36A7.87,7.87,0,0,1,.5,55.09V44.72a7.87,7.87,0,0,1,7.86-7.86H17c.14-.36.29-.72.44-1.07L11.4,29.71a7.87,7.87,0,0,1,0-11.12l7.33-7.32a7.86,7.86,0,0,1,11.12,0L36,17.4,37.05,17V8.36A7.87,7.87,0,0,1,44.91.5H55.28a7.87,7.87,0,0,1,7.86,7.86V17l1.07.44,6.08-6.08a7.87,7.87,0,0,1,11.12,0l7.32,7.33a7.86,7.86,0,0,1,0,11.12L82.6,36c.15.35.3.71.44,1.08h8.6a7.87,7.87,0,0,1,7.86,7.85V55.28a7.87,7.87,0,0,1-7.86,7.86H83c-.14.36-.29.72-.44,1.07l6.08,6.08a7.87,7.87,0,0,1,0,11.12l-7.33,7.32a7.86,7.86,0,0,1-11.12,0L64,82.6,63,83v8.6A7.87,7.87,0,0,1,55.09,99.5ZM35.17,79l.93.44c.86.41,1.78.79,2.72,1.14l1,.35V91.64a5,5,0,0,0,4.95,5H55.09a5,5,0,0,0,4.94-5V81l1-.35c1-.34,1.87-.72,2.73-1.12l.92-.43,7.56,7.56a5,5,0,0,0,7,0l7.33-7.32a4.95,4.95,0,0,0,0-7L79,64.83l.44-.93c.41-.87.79-1.78,1.14-2.72l.35-1H91.64a5,5,0,0,0,5-4.95V44.91a5,5,0,0,0-5-4.94H81l-.35-1a29.35,29.35,0,0,0-1.12-2.73l-.43-.92,7.56-7.56a5,5,0,0,0,0-7l-7.32-7.33a4.95,4.95,0,0,0-7,0L64.83,21l-.93-.44c-.86-.41-1.78-.79-2.72-1.14l-1-.35V8.36a5,5,0,0,0-4.95-4.95H44.91A5,5,0,0,0,40,8.36V19l-1,.35a28.87,28.87,0,0,0-2.73,1.12l-.92.43-7.56-7.56a5,5,0,0,0-7,0l-7.33,7.32a4.95,4.95,0,0,0,0,7L21,35.17l-.44.93c-.41.87-.79,1.78-1.14,2.72l-.35,1H8.36a5,5,0,0,0-4.95,4.95V55.09A5,5,0,0,0,8.36,60H19l.35,1a29.35,29.35,0,0,0,1.12,2.73l.43.92-7.56,7.56a5,5,0,0,0,0,7l7.32,7.33a4.95,4.95,0,0,0,7,0Z"/></svg>