<svg id="Capa_1" data-name="Capa 1" xmlns="http://www.w3.org/2000/svg" viewBox="0 0 100 100"><defs><style>.cls-1{fill:#cacbce;}</style></defs><title>support</title><g id="Capa_2" data-name="Capa 2"><g id="Capa_1-2" data-name="Capa 1-2"><path id="lifebuoy" class="cls-1" d="M90.79,41.06H86.9a38,38,0,0,0-28-28V9.15a8.65,8.65,0,0,0-17.3,0V13a38,38,0,0,0-28,28.15H9.68a8.65,8.65,0,0,0-.94,17.28h4.83a38,38,0,0,0,28.16,28v3.89A8.65,8.65,0,1,0,59,91.32a7.37,7.37,0,0,0,0-.94v-4a38,38,0,0,0,27.9-28h3.89a8.65,8.65,0,0,0,0-17.3ZM74.74,70.11,66.4,61.77a20.13,20.13,0,0,0,0-24.16l8.34-8.32a31.82,31.82,0,0,1,0,40.95ZM50.25,81.6a31.88,31.88,0,0,1-20.48-7.42l8.32-8.32a20.19,20.19,0,0,0,24.16,0l8.39,8.35A31.82,31.82,0,0,1,50.17,81.6ZM18.33,49.71a31.81,31.81,0,0,1,7.43-20.47l8.31,8.32a20.22,20.22,0,0,0,0,24.16l-8.34,8.39A31.81,31.81,0,0,1,18.33,49.71ZM50.25,17.8a31.8,31.8,0,0,1,20.47,7.42l-8.26,8.34a20.13,20.13,0,0,0-24.16,0L29.83,25.2A31.74,31.74,0,0,1,50.25,17.8Zm0,46.32A14.41,14.41,0,1,1,64.66,49.71,14.41,14.41,0,0,1,50.25,64.12Zm-2.89-55a2.89,2.89,0,1,1,5.75-.54,2.44,2.44,0,0,1,0,.54v3H47.36ZM9.68,52.66a2.89,2.89,0,0,1-.54-5.76,2.44,2.44,0,0,1,.54,0h3v5.76ZM53.19,90.33a2.89,2.89,0,1,1-5.76.54,4.86,4.86,0,0,1,0-.54V87.26h5.76Zm37.6-37.75h-3V46.82h3a2.89,2.89,0,1,1,.54,5.76A2.44,2.44,0,0,1,90.79,52.58Z"/></g></g></svg>