<svg id="Capa_1" data-name="Capa 1" xmlns="http://www.w3.org/2000/svg" viewBox="0 0 100 100"><defs><style>.cls-1{fill:#a3a3a3;}</style></defs><title>TDC</title><path class="cls-1" d="M91.51,79.46h-83a8,8,0,0,1-8-8V28.53a8,8,0,0,1,8-8h83a8,8,0,0,1,8,8V71.47A8,8,0,0,1,91.51,79.46ZM8.49,23.8a4.73,4.73,0,0,0-4.73,4.73V71.47A4.73,4.73,0,0,0,8.49,76.2h83a4.73,4.73,0,0,0,4.73-4.73V28.53a4.73,4.73,0,0,0-4.73-4.73Z"/><path class="cls-1" d="M97.87,39.82H2.13a1.63,1.63,0,1,1,0-3.26H97.87a1.63,1.63,0,1,1,0,3.26Z"/><path class="cls-1" d="M82.52,54.63h-40a1.63,1.63,0,1,1,0-3.26h40a1.63,1.63,0,1,1,0,3.26Z"/><path class="cls-1" d="M31.26,65.44h-16a1.63,1.63,0,0,1,0-3.26h16a1.63,1.63,0,1,1,0,3.26Z"/></svg>