<svg id="Capa_1" data-name="Capa 1" xmlns="http://www.w3.org/2000/svg" viewBox="0 0 100 100"><defs><style>.cls-1{fill:#a3a3a3;}</style></defs><title>transacciones</title><path class="cls-1" d="M49.59,98.4a10.63,10.63,0,0,1-8.22-3.88L16.91,64.82A10.7,10.7,0,0,1,16,52.62l30.15-51a2.54,2.54,0,0,1,4.38,2.58l-30.15,51a5.6,5.6,0,0,0,.49,6.38l24.46,29.7a5.58,5.58,0,0,0,9.16-.8L81.68,42.31a2.54,2.54,0,0,1,4.42,2.5L58.87,93a10.63,10.63,0,0,1-8.35,5.37C50.21,98.39,49.9,98.4,49.59,98.4Z"/><path class="cls-1" d="M42,70.25a7.63,7.63,0,1,1,7.62-7.62A7.63,7.63,0,0,1,42,70.25Zm0-10.16a2.54,2.54,0,1,0,2.54,2.54A2.55,2.55,0,0,0,42,60.09Z"/><path class="cls-1" d="M77.54,37.21H77.3A2.56,2.56,0,0,1,75,34.44L77.17,10.6,55.6,19.23a2.54,2.54,0,0,1-1.89-4.72L79.13,4.34a2.55,2.55,0,0,1,3.48,2.59l-2.54,28A2.54,2.54,0,0,1,77.54,37.21Z"/><path class="cls-1" d="M52.11,49.92a2.57,2.57,0,0,1-1.44-.45A2.54,2.54,0,0,1,50,45.94L78,5.26a2.54,2.54,0,0,1,4.19,2.88l-28,40.68A2.55,2.55,0,0,1,52.11,49.92Z"/></svg>