<svg xmlns="http://www.w3.org/2000/svg" viewBox="0 0 107.16 126.73"><defs><style>.cls-1{fill:#ffad00;}.cls-2{opacity:0.4;}.cls-3{fill:#fff;opacity:0.2;}.cls-4{fill:#fafafa;}.cls-5{fill:#263238;}</style></defs><title>Recurso 14</title><g id="Capa_2" data-name="Capa 2"><g id="Capa_1-2" data-name="Capa 1"><path class="cls-1" d="M102,8.84S113.45,30.44,68.71,86c0,0-39.24,57-61.08,31.14-18.59-22,1-55.8,14.25-73.95A166.79,166.79,0,0,1,48.77,15C65.2,1.64,87.79-7.69,102,8.84Z"/><path class="cls-2" d="M102,8.84S113.45,30.44,68.71,86c0,0-39.24,57-61.08,31.14-18.59-22,1-55.8,14.25-73.95A166.79,166.79,0,0,1,48.77,15C65.2,1.64,87.79-7.69,102,8.84Z"/><path class="cls-1" d="M102.86,10.48s18.51,26.34-26.23,81.87c0,0-46.45,54-65.81,26.26-13.27-19,5.73-50.91,19-69.07C36.77,40,47.86,27,57,19.55,73.45,6.2,92.68-2.26,102.86,10.48Z"/><ellipse class="cls-3" cx="56.87" cy="65.3" rx="56.4" ry="22.01" transform="translate(-29.66 68.62) rotate(-51.14)"/><path class="cls-1" d="M37.27,96.58l6.43-7.43a21.23,21.23,0,0,0,11.46-8.06c4.33-6.36,3.56-10.39,3.56-10.39s6.82,1.19,13.18-7.41C80.24,52,76.8,49.15,76.8,49.15l7.87-9.08L80.43,36.4l-6.7,7.72L72.5,43.05l6.89-7.95-4.46-3.86-6.57,8.09-2-1.75-34.65,40,3,2.6L27.86,88l3.83,3.32L38.06,84,40,85.69,33.66,93ZM55.9,59,64.51,49S71.63,53.57,66.93,60,55.9,59,55.9,59ZM42.26,75.36l7.4-8.54s7,2.8,2.65,8.91C47.3,82.75,42.26,75.36,42.26,75.36Z"/><path class="cls-2" d="M37.27,96.58l6.43-7.43a21.23,21.23,0,0,0,11.46-8.06c4.33-6.36,3.56-10.39,3.56-10.39s6.82,1.19,13.18-7.41C80.24,52,76.8,49.15,76.8,49.15l7.87-9.08L80.43,36.4l-6.7,7.72L72.5,43.05l6.89-7.95-4.46-3.86-6.57,8.09-2-1.75-34.65,40,3,2.6L27.86,88l3.83,3.32L38.06,84,40,85.69,33.66,93ZM55.9,59,64.51,49S71.63,53.57,66.93,60,55.9,59,55.9,59ZM42.26,75.36l7.4-8.54s7,2.8,2.65,8.91C47.3,82.75,42.26,75.36,42.26,75.36Z"/><path class="cls-1" d="M40.51,99.35l6.43-7.43A21.23,21.23,0,0,0,58.4,83.86C62.73,77.5,62,73.47,62,73.47s6.83,1.19,13.18-7.41C83.48,54.77,80,51.91,80,51.91l7.87-9.07-4.24-3.67L77,46.89l-1.23-1.07,6.89-8L78.17,34,71.6,42.1l-2-1.75-34.65,40,3,2.6L31.1,90.8l3.83,3.32,6.37-7.35,2,1.69L36.68,96ZM59.14,61.74l8.61-9.93s7.13,4.53,2.42,10.91S59.14,61.74,59.14,61.74ZM45.5,78.13l7.4-8.54s7,2.8,2.65,8.91C50.54,85.52,45.5,78.13,45.5,78.13Z"/><path class="cls-4" d="M104.37,13.59c.08,0,.29.48.65,1.48.18.5.38,1.12.57,1.87s.43,1.61.61,2.6a53.31,53.31,0,0,1,.54,17,70.65,70.65,0,0,1-2.42,11.53,84.63,84.63,0,0,1-4.93,12.59C95.29,69.25,89.47,78,83,86.71c-13,17.7-28.92,30.42-42,36.42-6.59,3-12.59,3.94-16.63,3.49l-1.43-.14-1.23-.26a10.83,10.83,0,0,1-1.9-.51c-1-.37-1.51-.59-1.48-.66s2.16.6,6.08.72,9.61-1,15.94-4c12.62-6.2,28.16-18.9,40.94-36.33,6.48-8.69,12.25-17.26,16.38-25.64a89.71,89.71,0,0,0,5-12.23,74,74,0,0,0,2.61-11.21,58.69,58.69,0,0,0,.16-16.64C104.81,15.77,104.19,13.64,104.37,13.59Z"/><path class="cls-2" d="M23,110.2s19.74,12.93,54-28.56S92.26,21.38,92.26,21.38s15.67,15.55-19.1,59C42.88,118.11,23,110.2,23,110.2Z"/><path class="cls-5" d="M0,93.43c.11-.25,1.73.5,3.56,1.6s3.24,2.16,3.13,2.33-1.67-.6-3.5-1.7A15.24,15.24,0,0,1,0,93.43Z"/><path class="cls-5" d="M1.35,105.56c.1-.26,1.43.33,2.9,1.21s2.58,1.78,2.47,2-1.38-.43-2.85-1.32A10,10,0,0,1,1.35,105.56Z"/><path class="cls-5" d="M1.56,83.2c.1-.18,1.83.65,3.86,1.85s3.6,2.3,3.5,2.47-1.83-.65-3.87-1.84S1.46,83.37,1.56,83.2Z"/><path class="cls-5" d="M4.62,73.56c.1-.17,2,.73,4.13,2S12.61,78,12.51,78.2s-2-.72-4.13-2S4.52,73.74,4.62,73.56Z"/><path class="cls-5" d="M9.62,63.41c.1-.17,2,.72,4.12,2s3.87,2.46,3.76,2.64-1.95-.73-4.13-2S9.51,63.58,9.62,63.41Z"/><path class="cls-5" d="M15.07,54.19c.11-.17,1.95.72,4.13,2s3.86,2.46,3.76,2.64-1.95-.73-4.13-2S15,54.37,15.07,54.19Z"/><path class="cls-5" d="M20.53,45c.1-.17,1.95.72,4.13,2s3.86,2.46,3.76,2.64-2-.72-4.13-2S20.43,45.15,20.53,45Z"/><path class="cls-5" d="M27.58,36.69c.1-.18,2,.72,4.13,2s3.86,2.46,3.76,2.63-1.95-.72-4.13-2S27.48,36.86,27.58,36.69Z"/><path class="cls-5" d="M34.85,28.53c.1-.17,1.95.73,4.13,2s3.86,2.46,3.75,2.63-1.95-.72-4.12-2S34.74,28.71,34.85,28.53Z"/><path class="cls-5" d="M42.34,20.49c.11-.17,1.95.73,4.13,2s3.86,2.45,3.76,2.63-1.95-.72-4.13-2S42.24,20.67,42.34,20.49Z"/><path class="cls-5" d="M50.47,13.38c.1-.17,2,.72,4.13,2s3.86,2.46,3.76,2.64-2-.73-4.13-2S50.37,13.55,50.47,13.38Z"/><path class="cls-5" d="M60,6.87c.11-.18,2,.72,4.13,2S68,11.33,67.93,11.5s-2-.72-4.13-2S59.94,7,60,6.87Z"/><path class="cls-5" d="M70.66,2.59c.11-.17,1.76.61,3.7,1.75S77.8,6.55,77.7,6.72,75.94,6.11,74,5,70.56,2.76,70.66,2.59Z"/><path class="cls-5" d="M81.37,0c.1-.17,1.76.61,3.7,1.75S88.5,4,88.4,4.17s-1.76-.61-3.7-1.75S81.27.22,81.37,0Z"/><path class="cls-4" d="M70.67,60.74c-.5-.36-.37-1.41-.26-2.54s.23-2.18.8-2.42c.28-.11.65.08,1,.57a3.55,3.55,0,0,1-.44,4C71.32,60.8,70.92,60.91,70.67,60.74Z"/><path class="cls-4" d="M55.47,78.21c-.42-.45,0-1.53.31-2.75s.58-2.35,1.17-2.52c.29-.07.64.2.88.78a3.68,3.68,0,0,1,.07,2.33,3.81,3.81,0,0,1-1.27,2C56.13,78.37,55.68,78.42,55.47,78.21Z"/><path class="cls-4" d="M74.32,67.11c-.11-.1,0-.51.41-1.15l1.61-2.63a31.92,31.92,0,0,0,2-3.95,12.57,12.57,0,0,0,1.13-5,5.92,5.92,0,0,0-.12-1.06,3.15,3.15,0,0,0-.26-.82l-.37-.76.47-.53c4.54-5.1,8.27-8.73,8.68-8.37s-2.65,4.56-7,9.78L81,51.33a4.74,4.74,0,0,1,.57,1.51,7.38,7.38,0,0,1,.18,1.47,12.71,12.71,0,0,1-1.48,5.91,20.68,20.68,0,0,1-2.62,4,16.82,16.82,0,0,1-2.22,2.28C74.8,67,74.43,67.21,74.32,67.11Z"/></g></g></svg>