<svg xmlns="http://www.w3.org/2000/svg" viewBox="0 0 217.25 228.07"><defs><style>.cls-1{fill:#ff92a2;}.cls-2{fill:#ff4f5b;}.cls-3,.cls-7{fill:#fff;}.cls-3{opacity:0.2;}.cls-4{fill:#fafafa;}.cls-5,.cls-6{opacity:0.3;}</style></defs><title>Recurso 24</title><g id="Capa_2" data-name="Capa 2"><g id="Capa_1-2" data-name="Capa 1"><path class="cls-1" d="M144.2,218.19c-59,26.85-116.56-3.48-128-61.23C5.93,105.09,37.08,48.27,85.28,25.26,134,2,188.88,18.54,209.37,66.69,232.22,120.41,203.88,191,144.2,218.19Z"/><path class="cls-2" d="M130,203.33C71,230.17,13.4,199.85,2,142.1-8.31,90.23,22.83,33.41,71,10.4c48.67-23.24,103.6-6.73,124.08,41.43C218,105.55,189.63,176.16,130,203.33Z"/><path class="cls-3" d="M122.57,175.07C79.83,194.66,37,172.78,27.26,129.79,18.33,90.18,41.1,46.27,77.75,28.85c36.92-17.55,78.2-3.61,93,33.87C186.81,103.46,165.68,155.31,122.57,175.07Z"/><path class="cls-4" d="M27.56,129.65C18.76,90.72,41.35,47.32,77.77,28.92c-.65.29-1.31.57-2,.88C38.26,47.65,14.65,91.93,23.43,131.58c9.52,43,53.08,64.56,96.86,44.49.76-.35,1.5-.73,2.25-1.1C79.45,193.27,37.09,171.84,27.56,129.65Z"/><path class="cls-5" d="M170.44,62.87c15.76,40-5.22,91.07-47.9,112.1.77-.32,1.53-.63,2.29-1,44.21-20.27,66.1-72.46,49.86-113.11C159.75,23.47,117.57,10,79.7,28c-.65.31-1.29.65-1.93,1C115.05,12.31,155.92,26,170.44,62.87Z"/><g class="cls-6"><path d="M85.54,104.21,95.65,59.56l4.93-7.69,68.69,8.22-.53,8.6-52.05,63.22Zm35.75,15,40.59-50.86-4.24.31,2.68,3.64-25.56,32.06"/><path d="M33.7,124,90.51,51,77.91,101.4l31.69,29.71-5.27,8.66Z"/></g><path class="cls-2" d="M168.74,68.69,95.65,59.56,83.83,105l32.42,29.71Z"/><path class="cls-2" d="M37.13,124.75,87.38,59.93,72.71,109.57l31.62,30.2Z"/><path class="cls-7" d="M100.12,60.12c2.23.12,4.46.33,6.68.55s4.44.49,6.66.74,4.43.58,6.64.92,4.42.68,6.62,1.11c-2.24-.12-4.46-.32-6.69-.54s-4.44-.5-6.66-.75-4.43-.58-6.64-.91S102.32,60.55,100.12,60.12Z"/><path class="cls-7" d="M146.08,65.86l11.35,1.25,11.34,1.31.48.06-.3.38c-3.85,5-7.77,9.87-11.66,14.8L145.56,98.4q-5.87,7.38-11.8,14.69c-3.93,4.89-7.93,9.74-11.91,14.6,3.84-5,7.66-10,11.54-14.9S141.12,102.9,145,98l11.71-14.76c3.93-4.9,7.82-9.82,11.78-14.7l.18.44-11.31-1.51Z"/><polygon class="cls-7" points="37.13 124.75 43.27 116.53 49.47 108.37 61.96 92.11 74.59 75.95 80.95 67.92 87.38 59.93 81.25 68.14 75.05 76.31 62.55 92.57 49.92 108.72 43.56 116.76 37.13 124.75"/></g></g></svg>