<svg xmlns="http://www.w3.org/2000/svg" viewBox="0 0 130.11 118.64"><defs><style>.cls-1{fill:#ff4f5b;}.cls-2{fill:#0454e8;}.cls-3{fill:#00a1ff;}.cls-4{fill:#fff;opacity:0.2;}.cls-5{fill:#fafafa;}.cls-6{opacity:0.4;}.cls-7{fill:#263238;}</style></defs><title>Recurso 34</title><g id="Capa_2" data-name="Capa 2"><g id="Capa_1-2" data-name="Capa 1"><path class="cls-1" d="M128.57,103.72S135,78.48,74.72,32.13c0,0-54.94-49.25-71.11-17-13.75,27.46,15,57.58,33.29,73.07a178.32,178.32,0,0,0,34.92,22.47C92.19,120.41,117.94,124.42,128.57,103.72Z"/><path class="cls-2" d="M128.57,103.72S135,78.48,74.72,32.13c0,0-54.94-49.25-71.11-17-13.75,27.46,15,57.58,33.29,73.07a178.32,178.32,0,0,0,34.92,22.47C92.19,120.41,117.94,124.42,128.57,103.72Z"/><path class="cls-3" d="M129,101.81S141.6,69.88,81.33,23.53c0,0-61.67-44.36-74.78-10.74-9,23.06,18.68,51.34,37,66.83,9.6,8.14,24.35,18.86,35.72,24.28C99.6,113.62,121.65,117.58,129,101.81Z"/><ellipse class="cls-4" cx="67.62" cy="56.52" rx="23.47" ry="60.14" transform="translate(-18.4 75.67) rotate(-52.44)"/><path class="cls-1" d="M97.9,83.8l-8.47-6.52,1.68-2.18,8.22,6.32,3.29-4.27-8.81-6.78L96.39,67,51.68,32.63l-1.74,2.26-8.59-7.06-3.84,5,8.9,6.84L45.34,41,36.7,34.4l-3.64,4.73,10.15,7.81s-3,3.71,8.13,13.73c8.47,7.64,15.35,4.94,15.35,4.94s0,4.37,5.93,10.09a22.63,22.63,0,0,0,13.69,6l8.3,6.39ZM55.82,56.12c-6.27-5.66.2-11.91.2-11.91l11.11,8.55S62.1,61.79,55.82,56.12ZM74.46,69.5c-5.85-5.45.87-9.87.87-9.87L84.88,67S81.18,75.76,74.46,69.5Z"/><path class="cls-2" d="M97.9,83.8l-8.47-6.52,1.68-2.18,8.22,6.32,3.29-4.27-8.81-6.78L96.39,67,51.68,32.63l-1.74,2.26-8.59-7.06-3.84,5,8.9,6.84L45.34,41,36.7,34.4l-3.64,4.73,10.15,7.81s-3,3.71,8.13,13.73c8.47,7.64,15.35,4.94,15.35,4.94s0,4.37,5.93,10.09a22.63,22.63,0,0,0,13.69,6l8.3,6.39ZM55.82,56.12c-6.27-5.66.2-11.91.2-11.91l11.11,8.55S62.1,61.79,55.82,56.12ZM74.46,69.5c-5.85-5.45.87-9.87.87-9.87L84.88,67S81.18,75.76,74.46,69.5Z"/><path class="cls-3" d="M99.46,79.48,91,73l1.67-2.18,8.22,6.32,3.29-4.28-8.8-6.77L98,62.69,53.23,28.31l-1.74,2.26L42.9,23.51l-3.83,5L48,35.33,46.9,36.72l-8.64-6.65-3.65,4.74,10.15,7.81s-3,3.71,8.13,13.73c8.48,7.64,15.36,4.94,15.36,4.94s0,4.37,5.93,10.09a22.69,22.69,0,0,0,13.68,6l8.31,6.38ZM57.38,51.8c-6.28-5.66.2-11.91.2-11.91l11.11,8.54S63.66,57.47,57.38,51.8ZM76,65.18c-5.85-5.46.88-9.87.88-9.87l9.55,7.34S82.74,71.44,76,65.18Z"/><path class="cls-5" d="M129.8,98.22c-.14,0,0-2.36-.32-6.58a61.11,61.11,0,0,0-4.2-17.31,76.39,76.39,0,0,0-5.49-11,92.55,92.55,0,0,0-8.25-11.5C105.16,44.09,97,36.62,88.11,29.23,70.45,14.31,51.07,5.06,36.34,1.86,29,.29,22.72.59,18.7,1.82l-1.43.41-1.22.48-1,.42c-.32.13-.58.29-.83.41a8.26,8.26,0,0,1-1.55.72A8.29,8.29,0,0,1,14,3.3c.25-.14.51-.32.82-.48l1-.48c.38-.17.78-.37,1.22-.55l1.44-.48C22.61-.11,29-.57,36.53.91c15,3,34.64,12.21,52.46,27.26,8.93,7.41,17.12,15,23.52,22.81a92.31,92.31,0,0,1,8.26,11.72A76.11,76.11,0,0,1,126.19,74,58,58,0,0,1,130,91.61c.07,1.06.07,2,0,2.83a20.73,20.73,0,0,1-.07,2.08A8.18,8.18,0,0,1,129.8,98.22Z"/><path class="cls-6" d="M21.28,18.46S38.5.12,84.38,34.55s30.91,58.63,30.91,58.63,12.35-20-34.55-56.31C39.9,5.29,21.28,18.46,21.28,18.46Z"/><path class="cls-5" d="M104.29,73.7a13.19,13.19,0,0,1-2.59-1.84c-1.6-1.26-3.88-3.12-6.67-5.42l-.4-.34.37-.4L97.51,63l.07.83C93,60.31,87.35,56,81.33,51.35c-7.85-6.09-14.9-11.65-20-15.74-2.53-2-4.56-3.71-6-4.89a11.42,11.42,0,0,1-2.07-1.94,11.15,11.15,0,0,1,2.4,1.51c1.49,1.05,3.61,2.61,6.22,4.55,5.22,3.89,12.37,9.34,20.21,15.42,6,4.67,11.57,9,16.1,12.64l.5.39-.44.44L95.74,66.4l0-.74c2.7,2.41,4.88,4.38,6.37,5.77A13.56,13.56,0,0,1,104.29,73.7Z"/><path class="cls-5" d="M76.58,66.18c-.11.14-.57,0-1.15-.39a5.68,5.68,0,0,1-1.71-2.22,5.57,5.57,0,0,1-.49-2.75c.08-.72.31-1.13.49-1.12.39,0,.49,1.63,1.26,3.32S76.81,65.86,76.58,66.18Z"/><path class="cls-5" d="M55.71,50c-.14.13-.49,0-.9-.37a4,4,0,0,1-1.07-1.87,4.14,4.14,0,0,1,0-2.15c.16-.54.41-.82.59-.78.38.09.4,1.26.78,2.57S56,49.77,55.71,50Z"/><path class="cls-5" d="M63.67,83.7c-.19.31-4.6-2.17-9.3-6.23s-7.82-8-7.55-8.27,3.81,3.25,8.45,7.23S63.89,83.37,63.67,83.7Z"/><path class="cls-7" d="M1.68,41.59a1.69,1.69,0,0,1,.2-.25l.6-.65C3,40.14,3.72,39.4,4.54,38.6a19.18,19.18,0,0,1,3.09-2.76,18,18,0,0,1-2.77,3.09C3.23,40.53,1.8,41.76,1.68,41.59Z"/><path class="cls-7" d="M0,28.69a.89.89,0,0,1,.16-.2L.63,28c.41-.45,1-1.05,1.64-1.69a12.53,12.53,0,0,1,2.51-2.2,11.54,11.54,0,0,1-2.19,2.52C1.29,27.88.12,28.87,0,28.69Z"/><path class="cls-7" d="M5.81,51.82a23.67,23.67,0,0,1,3.12-3.33,22.8,22.8,0,0,1,3.43-3,23.21,23.21,0,0,1-3.11,3.33A22.57,22.57,0,0,1,5.81,51.82Z"/><path class="cls-7" d="M11.4,61a25.64,25.64,0,0,1,3.35-3.56,25.75,25.75,0,0,1,3.66-3.22,26.2,26.2,0,0,1-3.34,3.55A26.63,26.63,0,0,1,11.4,61Z"/><path class="cls-7" d="M19.12,70.31a25.64,25.64,0,0,1,3.35-3.56,26.4,26.4,0,0,1,3.66-3.22,26.2,26.2,0,0,1-3.34,3.55A26.63,26.63,0,0,1,19.12,70.31Z"/><path class="cls-7" d="M27.08,78.5a25.74,25.74,0,0,1,3.35-3.56,26.12,26.12,0,0,1,3.67-3.22,25.92,25.92,0,0,1-3.35,3.55A26.63,26.63,0,0,1,27.08,78.5Z"/><path class="cls-7" d="M35.05,86.68a26.2,26.2,0,0,1,3.34-3.55,25.34,25.34,0,0,1,3.67-3.22,25.92,25.92,0,0,1-3.35,3.55A25,25,0,0,1,35.05,86.68Z"/><path class="cls-7" d="M44.43,93.51A25.26,25.26,0,0,1,47.77,90a26.12,26.12,0,0,1,3.67-3.22,25.92,25.92,0,0,1-3.35,3.55A26.92,26.92,0,0,1,44.43,93.51Z"/><path class="cls-7" d="M54,100.14a25.64,25.64,0,0,1,3.35-3.56A26.4,26.4,0,0,1,61,93.36a26.2,26.2,0,0,1-3.34,3.55A26.63,26.63,0,0,1,54,100.14Z"/><path class="cls-7" d="M63.78,106.59A25.92,25.92,0,0,1,67.13,103a26.63,26.63,0,0,1,3.67-3.23,25.74,25.74,0,0,1-3.35,3.56A26.12,26.12,0,0,1,63.78,106.59Z"/><path class="cls-7" d="M74,111.93a26.71,26.71,0,0,1,3.35-3.55A25.83,25.83,0,0,1,81,105.15a26.31,26.31,0,0,1-3.35,3.56A26.12,26.12,0,0,1,74,111.93Z"/><path class="cls-7" d="M85.54,116.29a25,25,0,0,1,3.35-3.56,26.4,26.4,0,0,1,3.66-3.22,26.2,26.2,0,0,1-3.34,3.55A26.63,26.63,0,0,1,85.54,116.29Z"/><path class="cls-7" d="M97.62,118.06a20.86,20.86,0,0,1,3-3.19,20.92,20.92,0,0,1,3.29-2.86,20.14,20.14,0,0,1-3,3.19A21.13,21.13,0,0,1,97.62,118.06Z"/><path class="cls-7" d="M109.35,118a20.86,20.86,0,0,1,3-3.19A20.51,20.51,0,0,1,115.6,112a20.86,20.86,0,0,1-3,3.18A20.62,20.62,0,0,1,109.35,118Z"/></g></g></svg>