<svg xmlns="http://www.w3.org/2000/svg" viewBox="0 0 237.24 53.01"><defs><style>.cls-1{fill:#565555;}</style></defs><title>Recurso 1</title><g id="Capa_2" data-name="Capa 2"><g id="Capa_1-2" data-name="Capa 1"><path class="cls-1" d="M93,26.54H85.2V32.4h9.15v2.65H81.89V16H94.26v2.67H85.2v5.26H93Z"/><path class="cls-1" d="M104.47,25l4.39-9h3.66l-6.39,12v7h-3.32V28l-6.4-12h3.68Z"/><path class="cls-1" d="M126.93,26.54h-7.82V32.4h9.15v2.65H115.8V16h12.36v2.67h-9v5.26h7.82Z"/><path class="cls-1" d="M147.11,30.34,150,16h3.28l-4.39,19.06h-3.17l-3.63-13.91-3.7,13.91h-3.18L130.85,16h3.28l3,14.32L140.73,16h2.78Z"/><path class="cls-1" d="M167.05,30.61h-7.38l-1.54,4.44h-3.44L161.88,16h3l7.21,19.06h-3.46Zm-6.45-2.67h5.53L163.36,20Z"/><path class="cls-1" d="M178.74,32.4h8.66v2.65h-12V16h3.31Z"/><path class="cls-1" d="M194.45,32.4h8.65v2.65h-12V16h3.31Z"/><path class="cls-1" d="M218,26.54h-7.83V32.4h9.15v2.65H206.85V16h12.37v2.67h-9.06v5.26H218Z"/><path class="cls-1" d="M237.24,18.66H231.3V35.05H228V18.66h-5.89V16h15.11Z"/><path class="cls-1" d="M35.11,1h0m-.84,1.39,4,5L24.54,30.17a3,3,0,0,0,.23,3.38L36.89,48.62l-1,1.61a2.52,2.52,0,0,1-2.18,1.23,2.49,2.49,0,0,1-2-1L16.62,31.69,34.27,2.39M34.14,0a.41.41,0,0,0-.36.21L15.25,31a1.38,1.38,0,0,0,.11,1.61l15.2,18.9A4,4,0,0,0,33.74,53a4.07,4.07,0,0,0,3.51-2l1.52-2.53L26,32.58A1.42,1.42,0,0,1,25.86,31L40.15,7.25,34.47.16A.39.39,0,0,0,34.14,0Z"/><path class="cls-1" d="M20.06,1h0m-.83,1.38L23.1,7.22l-13.83,23a3,3,0,0,0,.23,3.38L21.75,48.77l-.87,1.46a2.53,2.53,0,0,1-2.18,1.23,2.51,2.51,0,0,1-2-1L1.58,31.69,19.23,2.39M19.1,0a.41.41,0,0,0-.36.21L.2,31a1.42,1.42,0,0,0,.11,1.61l15.2,18.9a4.09,4.09,0,0,0,6.7-.46l1.42-2.38L10.71,32.58A1.4,1.4,0,0,1,10.6,31L25,7.1,19.43.16A.42.42,0,0,0,19.1,0Z"/><path class="cls-1" d="M50.06,1h0m-.83,1.39,2,2.53.73.92,1.2,1.49,3.23,4,0,0h0l2.27,2.83h0l0,0L62,18.34l0,0h0l2.56,3.2.63.79,1.22,1.53a.26.26,0,0,1,0,.3l-15.57,26a2.53,2.53,0,0,1-2.18,1.23,2.49,2.49,0,0,1-2-1L31.58,31.69l9.55-15.86.56-.93L49.23,2.39M49.1,0a.44.44,0,0,0-.37.21L40.36,14.1,39.8,15,30.2,31a1.42,1.42,0,0,0,.11,1.61l15.2,18.9A4.08,4.08,0,0,0,52.2,51L67.78,25a1.81,1.81,0,0,0-.14-2.07l-1.22-1.53-.63-.79L63.2,17.37h0L60,13.31h0l-2.31-2.9h0l-3.23-4L53.2,4.87,52.46,4l-3-3.79A.42.42,0,0,0,49.1,0Z"/></g></g></svg>