<?xml version="1.0" encoding="UTF-8" standalone="no"?><!DOCTYPE svg PUBLIC "-//W3C//DTD SVG 1.1//EN" "http://www.w3.org/Graphics/SVG/1.1/DTD/svg11.dtd"><svg width="100%" height="100%" viewBox="0 0 160 56" version="1.1" xmlns="http://www.w3.org/2000/svg" xmlns:xlink="http://www.w3.org/1999/xlink" xml:space="preserve" xmlns:serif="http://www.serif.com/" style="fill-rule:evenodd;clip-rule:evenodd;stroke-linejoin:round;stroke-miterlimit:2;"><path d="M143.058,14.312c-1.07,0 -1.52,0.971 -1.59,1.674l3.011,0c0.014,-0.633 -0.268,-1.674 -1.421,-1.674Zm-67.31,3.755c0,0.676 0.436,0.987 0.984,0.987c0.704,0 1.196,-0.451 1.365,-0.944c0.042,-0.126 0.042,-0.253 0.042,-0.38l0,-0.941c-1.223,-0.014 -2.391,0.238 -2.391,1.278Zm33.303,-3.685c-1.225,0 -1.717,1.196 -1.717,2.335c0,1.323 0.661,2.322 1.703,2.322c0.984,0 1.674,-0.957 1.674,-2.349c0,-1.069 -0.479,-2.308 -1.66,-2.308Zm-11.628,-0.07c-1.069,0 -1.519,0.971 -1.589,1.674l3.01,0c0.014,-0.633 -0.267,-1.674 -1.421,-1.674Zm-12.457,0.168c-0.703,0 -1.35,0.508 -1.533,1.267c-0.029,0.127 -0.058,0.281 -0.058,0.45l0,1.111c0,0.141 0.015,0.282 0.043,0.409c0.183,0.702 0.789,1.21 1.534,1.21c1.084,0 1.745,-0.86 1.745,-2.251c0,-1.21 -0.577,-2.196 -1.731,-2.196Zm61.101,22.378l-8.87,0c0.035,1.312 0.464,2.312 1.288,3.004c0.746,0.622 1.712,0.933 2.9,0.933c1.316,0 2.508,-0.209 3.586,-0.635l0.465,2.056c-1.254,0.552 -2.745,0.819 -4.464,0.819c-2.058,0 -3.678,-0.603 -4.855,-1.816c-1.176,-1.213 -1.769,-2.842 -1.769,-4.884c0,-2.011 0.55,-3.677 1.642,-5.015c1.155,-1.421 2.706,-2.131 4.655,-2.131c1.922,0 3.371,0.71 4.353,2.131c0.782,1.135 1.177,2.533 1.177,4.194c0,0.525 -0.038,0.972 -0.108,1.344Zm-12.201,-20.83l0,4.108l-1.729,0l0,-9.988l1.729,0l0,4.065l0.029,0c0.21,-0.323 0.506,-0.59 0.858,-0.773c0.351,-0.198 0.76,-0.31 1.196,-0.31c1.168,0 2.393,0.774 2.393,2.969l0,4.037l-1.732,0l0,-3.854c0,-0.986 -0.366,-1.745 -1.322,-1.745c-0.676,0 -1.154,0.451 -1.35,0.97c-0.057,0.156 -0.072,0.338 -0.072,0.521Zm-0.448,16.06c-0.291,-0.053 -0.605,-0.075 -0.931,-0.075c-1.04,0 -1.841,0.392 -2.408,1.175c-0.494,0.695 -0.739,1.558 -0.739,2.625l0,6.979l-2.956,0l0,-9.119c0,-1.524 -0.027,-2.921 -0.079,-4.185l2.572,0l0.11,2.547l0.08,0c0.31,-0.873 0.8,-1.578 1.479,-2.103c0.657,-0.48 1.372,-0.71 2.138,-0.71c0.271,0 0.519,0.014 0.734,0.05l0,2.816Zm-7.588,-18.803l0.971,0l0,-1.282l1.703,-0.478l0,1.76l1.645,0l0,1.294l-1.645,0l0,3.025c0,0.844 0.225,1.266 0.886,1.266c0.309,0 0.478,-0.014 0.675,-0.07l0.029,1.309c-0.254,0.097 -0.718,0.183 -1.253,0.183c-0.647,0 -1.168,-0.212 -1.491,-0.563c-0.38,-0.394 -0.549,-1.028 -0.549,-1.928l0,-3.222l-0.971,0l0,-1.294Zm-3.055,27.787c-1.226,1.347 -2.85,2.021 -4.871,2.021c-1.956,0 -3.516,-0.647 -4.674,-1.943c-1.157,-1.292 -1.734,-2.932 -1.734,-4.9c0,-2.06 0.596,-3.75 1.791,-5.062c1.197,-1.319 2.803,-1.967 4.828,-1.967c1.96,0 3.528,0.641 4.714,1.943c1.128,1.252 1.694,2.881 1.694,4.868c0,2.05 -0.58,3.722 -1.748,5.04Zm-13.795,-20.78c-1.927,0 -3.433,-1.324 -3.433,-3.532c0,-2.251 1.477,-3.63 3.546,-3.63c2.04,0 3.405,1.436 3.405,3.518c0,2.518 -1.773,3.644 -3.518,3.644Zm1.667,11.411l-3.262,0l0,6.467c0,1.641 0.579,2.455 1.729,2.455c0.529,0 0.963,-0.039 1.313,-0.129l0.084,2.239c-0.585,0.219 -1.35,0.33 -2.299,0.33c-1.162,0 -2.081,-0.351 -2.736,-1.068c-0.663,-0.708 -0.99,-1.905 -0.99,-3.584l0,-6.71l-1.941,0l0,-2.215l1.941,0l0,-2.434l2.899,-0.876l0,3.31l3.262,0l0,2.215Zm-10.421,9.746c-1.207,1.078 -2.881,1.614 -5.027,1.614c-1.99,0 -3.58,-0.385 -4.782,-1.148l0.687,-2.463c1.295,0.763 2.717,1.15 4.265,1.15c1.118,0 1.982,-0.254 2.603,-0.752c0.617,-0.5 0.928,-1.17 0.928,-2.02c0,-0.738 -0.256,-1.368 -0.764,-1.882c-0.515,-0.51 -1.357,-0.981 -2.545,-1.423c-3.226,-1.201 -4.842,-2.962 -4.842,-5.279c0,-1.514 0.563,-2.759 1.706,-3.725c1.14,-0.965 2.65,-1.45 4.532,-1.45c1.678,0 3.075,0.294 4.19,0.874l-0.746,2.41c-1.04,-0.564 -2.222,-0.85 -3.541,-0.85c-1.042,0 -1.859,0.265 -2.447,0.764c-0.491,0.463 -0.738,1.019 -0.738,1.674c0,0.725 0.283,1.33 0.847,1.811c0.494,0.436 1.389,0.908 2.68,1.418c1.593,0.634 2.757,1.387 3.508,2.247c0.746,0.857 1.122,1.923 1.122,3.198c0,1.571 -0.549,2.852 -1.636,3.832Zm-14.88,-21.157c-0.887,0 -1.675,-0.338 -2.167,-1.183l-0.028,0l-0.084,1.027l-1.478,0c0.029,-0.464 0.057,-1.223 0.057,-1.928l0,-8.06l1.729,0l0,4.079l0.029,0c0.422,-0.661 1.168,-1.097 2.195,-1.097c1.675,0 2.87,1.393 2.857,3.475c0,2.462 -1.562,3.687 -3.11,3.687Zm-2.03,21.054c-1.102,1.163 -2.466,1.747 -4.101,1.747c-1.76,0 -3.026,-0.628 -3.795,-1.892l0,6.987l-2.957,0l0,-14.328c0,-1.422 -0.038,-2.877 -0.109,-4.372l2.594,0l0.171,2.108l0.05,0c0.993,-1.582 2.484,-2.375 4.491,-2.375c1.57,0 2.88,0.615 3.928,1.859c1.052,1.238 1.576,2.875 1.576,4.899c0,2.269 -0.615,4.05 -1.848,5.367Zm-11.539,-21.21l-1.73,0l0,-9.988l1.73,0l0,9.988Zm-3.076,21.21c-1.099,1.163 -2.469,1.747 -4.1,1.747c-1.766,0 -3.029,-0.628 -3.798,-1.892l0,6.987l-2.954,0l0,-14.328c0,-1.422 -0.038,-2.877 -0.113,-4.372l2.6,0l0.164,2.108l0.051,0c0.991,-1.582 2.485,-2.375 4.494,-2.375c1.57,0 2.875,0.615 3.931,1.859c1.046,1.238 1.572,2.875 1.572,4.899c0,2.269 -0.614,4.05 -1.847,5.367Zm-11.575,-23.095c0,-1.716 1.534,-2.603 4.067,-2.588l0,-0.113c0,-0.45 -0.184,-1.197 -1.394,-1.197c-0.675,0 -1.378,0.213 -1.842,0.508l-0.338,-1.126c0.506,-0.31 1.392,-0.605 2.476,-0.605c2.195,0 2.828,1.393 2.828,2.898l0,2.462c0,0.619 0.028,1.224 0.113,1.646l-1.563,0l-0.126,-0.759l-0.042,0c-0.408,0.534 -1.126,0.915 -2.026,0.915c-1.379,0 -2.153,-1 -2.153,-2.041Zm-3.562,1.885l-1.703,0l-2.547,-6.851l1.872,0l1.11,3.475c0.198,0.605 0.338,1.153 0.465,1.717l0.043,0c0.126,-0.564 0.281,-1.099 0.464,-1.717l1.098,-3.475l1.815,0l-2.617,6.851Zm-0.672,22.656l-1.723,-5.415l-5.996,0l-1.644,5.415l-3.063,0l5.935,-18.448l3.672,0l5.969,18.448l-3.15,0Zm-20.889,-0.693c0,1.671 -1.362,3.025 -3.032,3.025l-12.995,0c-1.672,0 -3.034,-1.354 -3.034,-3.025l0,-28.877c0,-1.671 1.362,-3.029 3.034,-3.029l12.995,0c1.67,0 3.032,1.358 3.032,3.029l0,28.877Zm11.525,-31.445l2.209,0l3.081,9.482l-1.871,0l-0.858,-2.687l-2.998,0l-0.816,2.687l-1.787,0l3.04,-9.482Zm23.802,2.631l0,6.851l-1.73,0l0,-6.851l1.73,0Zm-0.858,-2.857c0.591,0 0.957,0.409 0.971,0.943c0,0.506 -0.38,0.929 -0.985,0.929c-0.578,0 -0.957,-0.423 -0.957,-0.929c0,-0.534 0.394,-0.943 0.971,-0.943Zm10.233,3.925c-0.676,0 -1.379,0.213 -1.843,0.508l-0.338,-1.126c0.506,-0.31 1.393,-0.605 2.476,-0.605c2.195,0 2.829,1.393 2.829,2.898l0,2.462c0,0.619 0.027,1.224 0.111,1.646l-1.562,0l-0.126,-0.759l-0.042,0c-0.408,0.534 -1.126,0.915 -2.026,0.915c-1.38,0 -2.153,-1 -2.153,-2.041c0,-1.716 1.533,-2.603 4.066,-2.588l0,-0.113c0,-0.45 -0.183,-1.197 -1.392,-1.197Zm13.724,-4.205l1.73,0l0,9.988l-1.73,0l0,-9.988Zm7.093,2.982c2.223,0 2.956,1.829 2.956,3.334c0,0.325 -0.029,0.578 -0.057,0.733l-4.587,0c0.041,1.237 0.999,1.771 2.11,1.771c0.802,0 1.365,-0.125 1.9,-0.309l0.253,1.182c-0.591,0.253 -1.407,0.435 -2.392,0.435c-2.223,0 -3.532,-1.363 -3.532,-3.459c0,-1.9 1.154,-3.687 3.349,-3.687Zm18.173,0.155l0.084,1.027l0.043,0c0.309,-0.535 1.055,-1.182 2.195,-1.182c1.196,0 2.434,0.774 2.434,2.94l0,4.066l-1.73,0l0,-3.869c0,-0.984 -0.367,-1.73 -1.309,-1.73c-0.689,0 -1.168,0.492 -1.352,1.013c-0.056,0.141 -0.084,0.352 -0.084,0.549l0,4.037l-1.73,0l0,-4.81c0,-0.789 -0.028,-1.45 -0.057,-2.041l1.506,0Zm27.461,-0.155c2.223,0 2.955,1.829 2.955,3.334c0,0.325 -0.028,0.578 -0.056,0.733l-4.587,0c0.042,1.237 0.999,1.771 2.11,1.771c0.802,0 1.365,-0.125 1.899,-0.309l0.253,1.182c-0.59,0.253 -1.406,0.435 -2.391,0.435c-2.223,0 -3.531,-1.363 -3.531,-3.459c0,-1.9 1.153,-3.687 3.348,-3.687Zm9.239,-13.13l-145.672,0c-3.707,0 -6.723,3.015 -6.723,6.724l0,41.863c0,3.702 3.016,6.714 6.723,6.714l145.672,0c3.707,0 6.724,-3.012 6.724,-6.714l0,-41.863c0,-3.709 -3.017,-6.724 -6.724,-6.724Zm-107.333,13.805c-0.184,-0.577 -0.338,-1.223 -0.478,-1.772l-0.03,0c-0.139,0.549 -0.295,1.209 -0.45,1.772l-0.73,2.336l2.433,0l-0.745,-2.336Zm16.131,4.305c0.041,-0.126 0.041,-0.253 0.041,-0.38l0,-0.941c-1.224,-0.014 -2.391,0.238 -2.391,1.278c0,0.676 0.436,0.987 0.985,0.987c0.703,0 1.195,-0.451 1.365,-0.944Zm79.234,13.128c-0.965,0 -1.749,0.412 -2.354,1.21c-0.492,0.637 -0.787,1.405 -0.876,2.294l6.158,0c0.016,-0.873 -0.171,-1.627 -0.572,-2.269c-0.513,-0.818 -1.3,-1.235 -2.356,-1.235Zm-92.271,-4.43l-0.052,0c-0.186,0.785 -0.474,1.941 -0.879,3.476l-1.533,4.819l4.953,0l-1.554,-4.819c-0.168,-0.495 -0.481,-1.654 -0.935,-3.476Zm30.547,4.759c-0.733,0 -1.387,0.24 -1.983,0.723c-0.593,0.49 -0.982,1.124 -1.166,1.909c-0.091,0.368 -0.134,0.666 -0.134,0.905l0,2.214c0,0.969 0.292,1.788 0.888,2.454c0.592,0.66 1.364,0.995 2.309,0.995c1.119,0 1.984,-0.426 2.605,-1.286c0.622,-0.858 0.934,-1.989 0.934,-3.398c0,-1.292 -0.294,-2.361 -0.876,-3.198c-0.644,-0.872 -1.502,-1.318 -2.577,-1.318Zm39.304,-0.184c-1.183,0 -2.087,0.525 -2.704,1.582c-0.535,0.87 -0.797,1.932 -0.797,3.188c0,1.224 0.262,2.268 0.797,3.14c0.632,1.055 1.527,1.58 2.682,1.58c1.124,0 2.013,-0.532 2.648,-1.613c0.551,-0.883 0.826,-1.942 0.826,-3.158c0,-1.217 -0.264,-2.267 -0.79,-3.137c-0.629,-1.057 -1.511,-1.582 -2.662,-1.582Zm-53.923,0.184c-0.729,0 -1.387,0.24 -1.982,0.723c-0.595,0.49 -0.98,1.124 -1.164,1.909c-0.09,0.368 -0.135,0.666 -0.135,0.905l0,2.214c0,0.969 0.291,1.788 0.888,2.454c0.592,0.66 1.364,0.995 2.311,0.995c1.111,0 1.984,-0.426 2.603,-1.286c0.62,-0.858 0.928,-1.989 0.928,-3.398c0,-1.292 -0.288,-2.361 -0.873,-3.198c-0.642,-0.872 -1.498,-1.318 -2.576,-1.318Zm-49.299,7.467l15.376,0l0,-22.74l-15.376,0l0,22.74Zm7.686,1.343c-0.862,0 -1.565,0.705 -1.565,1.57c0,0.864 0.703,1.567 1.565,1.567c0.866,0 1.568,-0.703 1.568,-1.567c0,-0.865 -0.702,-1.57 -1.568,-1.57Zm-1.506,-26.403l3.013,0c0.197,0 0.358,-0.162 0.358,-0.351c0,-0.2 -0.161,-0.361 -0.358,-0.361l-3.013,0c-0.191,0 -0.355,0.161 -0.355,0.361c0,0.189 0.164,0.351 0.355,0.351Z" style="fill:#58595b;fill-rule:nonzero;"/></svg>