<?xml version="1.0" encoding="UTF-8" standalone="no"?><!DOCTYPE svg PUBLIC "-//W3C//DTD SVG 1.1//EN" "http://www.w3.org/Graphics/SVG/1.1/DTD/svg11.dtd"><svg width="100%" height="100%" viewBox="0 0 169 56" version="1.1" xmlns="http://www.w3.org/2000/svg" xmlns:xlink="http://www.w3.org/1999/xlink" xml:space="preserve" xmlns:serif="http://www.serif.com/" style="fill-rule:evenodd;clip-rule:evenodd;stroke-linejoin:round;stroke-miterlimit:2;"><path d="M73.042,11.756c-0.346,0 -0.639,0.155 -0.88,0.465c-0.241,0.31 -0.362,0.701 -0.362,1.174c0,0.492 0.127,0.892 0.382,1.201c0.254,0.308 0.565,0.463 0.934,0.463c0.346,0 0.639,-0.156 0.88,-0.467c0.241,-0.311 0.362,-0.702 0.362,-1.172c0,-0.494 -0.127,-0.895 -0.38,-1.203c-0.253,-0.307 -0.565,-0.461 -0.936,-0.461Z" style="fill:#58595b;fill-rule:nonzero;"/><path d="M79.906,11.781c-0.102,0 -0.242,0.01 -0.419,0.032c0.024,0.473 0.036,0.967 0.036,1.483c0,0.565 0.011,1.125 0.035,1.681c0.154,0.031 0.307,0.046 0.461,0.046c0.509,0 0.885,-0.158 1.13,-0.473c0.245,-0.316 0.367,-0.701 0.367,-1.155c0,-0.454 -0.132,-0.837 -0.397,-1.148c-0.265,-0.311 -0.669,-0.466 -1.213,-0.466Z" style="fill:#58595b;fill-rule:nonzero;"/><path d="M91.521,11.738c-0.168,0 -0.345,0.018 -0.532,0.053c0.026,0.447 0.039,0.954 0.039,1.519c0.059,0.005 0.128,0.007 0.206,0.007c0.863,0 1.295,-0.273 1.295,-0.82c0,-0.506 -0.336,-0.759 -1.008,-0.759Z" style="fill:#58595b;fill-rule:nonzero;"/><path d="M87.003,11.728c0,0.092 -0.209,0.752 -0.627,1.979l1.291,0c-0.405,-1.22 -0.608,-1.88 -0.608,-1.979l-0.056,0Z" style="fill:#58595b;fill-rule:nonzero;"/><path d="M53.493,11.728c0,0.092 -0.21,0.752 -0.628,1.979l1.291,0c-0.404,-1.22 -0.607,-1.88 -0.607,-1.979l-0.056,0Z" style="fill:#58595b;fill-rule:nonzero;"/><path d="M68.013,11.742c-0.222,0 -0.418,0.016 -0.588,0.049c0.026,0.367 0.039,0.845 0.039,1.434c0.13,0.004 0.24,0.007 0.33,0.007c0.752,0 1.128,-0.261 1.128,-0.784c0,-0.471 -0.303,-0.706 -0.909,-0.706Z" style="fill:#58595b;fill-rule:nonzero;"/><path d="M62.932,11.781c-0.102,0 -0.241,0.01 -0.419,0.032c0.024,0.473 0.036,0.967 0.036,1.483c0,0.565 0.012,1.125 0.035,1.681c0.154,0.031 0.308,0.046 0.461,0.046c0.509,0 0.886,-0.158 1.13,-0.473c0.245,-0.316 0.367,-0.701 0.367,-1.155c0,-0.454 -0.132,-0.837 -0.397,-1.148c-0.265,-0.311 -0.669,-0.466 -1.213,-0.466Z" style="fill:#58595b;fill-rule:nonzero;"/><path d="M102.36,11.756c-0.346,0 -0.639,0.155 -0.88,0.465c-0.241,0.31 -0.362,0.701 -0.362,1.174c0,0.492 0.127,0.892 0.382,1.201c0.254,0.308 0.565,0.463 0.934,0.463c0.346,0 0.639,-0.156 0.88,-0.467c0.241,-0.311 0.362,-0.702 0.362,-1.172c0,-0.494 -0.127,-0.895 -0.38,-1.203c-0.253,-0.307 -0.565,-0.461 -0.936,-0.461Z" style="fill:#58595b;fill-rule:nonzero;"/><path d="M95.776,11.738c-0.168,0 -0.346,0.018 -0.532,0.053c0.026,0.447 0.039,0.954 0.039,1.519c0.059,0.005 0.127,0.007 0.206,0.007c0.863,0 1.294,-0.273 1.294,-0.82c0,-0.506 -0.335,-0.759 -1.007,-0.759Z" style="fill:#58595b;fill-rule:nonzero;"/><path d="M86.527,28.377c-0.994,0 -1.854,0.371 -2.58,1.112c-0.726,0.742 -1.088,1.723 -1.088,2.946c0,1.223 0.362,2.204 1.088,2.945c0.726,0.742 1.586,1.113 2.58,1.113c0.993,0 1.851,-0.371 2.579,-1.113c0.726,-0.741 1.089,-1.722 1.089,-2.945c0,-1.223 -0.363,-2.204 -1.089,-2.946c-0.728,-0.741 -1.586,-1.112 -2.579,-1.112Z" style="fill:#58595b;fill-rule:nonzero;"/><path d="M74.262,28.377c-0.994,0 -1.853,0.371 -2.579,1.112c-0.726,0.742 -1.089,1.723 -1.089,2.946c0,1.223 0.363,2.204 1.089,2.945c0.726,0.742 1.585,1.113 2.579,1.113c0.993,0 1.853,-0.371 2.579,-1.113c0.726,-0.741 1.089,-1.722 1.089,-2.945c0,-1.223 -0.363,-2.204 -1.089,-2.946c-0.726,-0.741 -1.586,-1.112 -2.579,-1.112Z" style="fill:#58595b;fill-rule:nonzero;"/><path d="M132.466,23.655l-3.53,0l0,5.731l3.53,0c0.886,0 1.597,-0.299 2.132,-0.894c0.535,-0.596 0.803,-1.253 0.803,-1.972c0,-0.718 -0.268,-1.375 -0.803,-1.971c-0.535,-0.596 -1.246,-0.894 -2.132,-0.894Z" style="fill:#58595b;fill-rule:nonzero;"/><path d="M145.257,33.145c-0.519,0.444 -0.779,0.963 -0.779,1.56c0,0.549 0.236,0.985 0.711,1.306c0.473,0.321 1.016,0.482 1.627,0.482c0.871,0 1.662,-0.325 2.373,-0.975c0.711,-0.649 1.065,-1.417 1.065,-2.304c-0.595,-0.489 -1.489,-0.733 -2.681,-0.733c-1.025,0 -1.796,0.222 -2.316,0.664Z" style="fill:#58595b;fill-rule:nonzero;"/><path d="M115.089,28.377c-0.779,0 -1.455,0.245 -2.028,0.734c-0.573,0.489 -0.967,1.146 -1.181,1.972l6.511,0c-0.046,-0.643 -0.341,-1.253 -0.883,-1.834c-0.543,-0.581 -1.349,-0.872 -2.419,-0.872Z" style="fill:#58595b;fill-rule:nonzero;"/><path d="M98.7,28.377c-0.979,0 -1.82,0.371 -2.522,1.112c-0.703,0.742 -1.055,1.723 -1.055,2.946c0,1.223 0.352,2.204 1.055,2.945c0.702,0.742 1.543,1.113 2.522,1.113c0.993,0 1.838,-0.367 2.533,-1.101c0.695,-0.733 1.043,-1.72 1.043,-2.957c0,-1.238 -0.348,-2.224 -1.043,-2.957c-0.695,-0.734 -1.54,-1.101 -2.533,-1.101Z" style="fill:#58595b;fill-rule:nonzero;"/><path d="M156.858,43.002l-2.178,0l2.613,-5.662l-4.63,-10.522l2.292,0l3.347,8.07l0.046,0l3.255,-8.07l2.292,0l-7.037,16.184Zm-4.586,-4.951l-2.018,0l0,-1.558l-0.09,0c-0.841,1.283 -2.072,1.925 -3.692,1.925c-1.192,0 -2.189,-0.344 -2.991,-1.032c-0.803,-0.687 -1.204,-1.596 -1.204,-2.727c0,-1.223 0.473,-2.182 1.422,-2.877c0.947,-0.696 2.116,-1.043 3.507,-1.043c1.238,0 2.254,0.228 3.048,0.687l0,-0.321c0,-0.825 -0.282,-1.486 -0.847,-1.982c-0.566,-0.497 -1.261,-0.746 -2.086,-0.746c-0.612,0 -1.166,0.146 -1.662,0.436c-0.497,0.29 -0.837,0.688 -1.021,1.191l-1.926,-0.825c0.26,-0.672 0.772,-1.295 1.536,-1.868c0.764,-0.573 1.773,-0.859 3.027,-0.859c1.436,0 2.628,0.421 3.576,1.26c0.947,0.841 1.421,2.026 1.421,3.554l0,6.785Zm-11.232,0l-2.109,0l0,-16.414l2.109,0l0,16.414Zm-5.009,-8.035c-1.017,0.925 -2.22,1.387 -3.611,1.387l-3.484,0l0,6.648l-2.109,0l0,-16.414l5.593,0c1.391,0 2.594,0.463 3.611,1.387c1.016,0.926 1.524,2.091 1.524,3.496c0,1.406 -0.508,2.572 -1.524,3.496Zm-15.416,2.809l-8.872,0c0.06,1.131 0.439,2.025 1.134,2.681c0.696,0.658 1.509,0.987 2.442,0.987c1.513,0 2.537,-0.643 3.072,-1.926l1.879,0.779c-0.366,0.871 -0.971,1.602 -1.811,2.19c-0.84,0.588 -1.872,0.882 -3.094,0.882c-1.697,0 -3.076,-0.565 -4.138,-1.697c-1.062,-1.13 -1.594,-2.559 -1.594,-4.286c0,-1.636 0.516,-3.041 1.548,-4.219c1.031,-1.175 2.35,-1.764 3.954,-1.764c1.666,0 2.999,0.543 4,1.628c1.001,1.085 1.502,2.537 1.502,4.355l-0.022,0.39Zm-11.152,-17.114l-0.876,0c0,-0.097 -0.325,-0.608 -0.975,-1.536c-0.682,-0.976 -1.07,-1.644 -1.164,-2.004l-0.057,0c0.059,0.518 0.089,0.986 0.089,1.405c0,0.584 0.016,1.296 0.05,2.135l-0.873,0c0.035,-0.733 0.053,-1.538 0.053,-2.415c0,-0.864 -0.018,-1.598 -0.053,-2.203l1.053,0c0,0.125 0.293,0.625 0.877,1.5c0.622,0.93 0.979,1.56 1.071,1.891l0.053,0c-0.057,-0.527 -0.085,-1 -0.085,-1.419c0,-0.641 -0.016,-1.298 -0.05,-1.972l0.887,0c-0.033,0.586 -0.049,1.321 -0.049,2.203c0,0.889 0.016,1.694 0.049,2.415Zm-1.067,22.34l-2.108,0l0,-16.414l2.108,0l0,16.414Zm-4.408,-22.928c-0.445,0.477 -0.995,0.716 -1.65,0.716c-0.624,0 -1.147,-0.219 -1.568,-0.658c-0.42,-0.439 -0.631,-0.996 -0.631,-1.673c0,-0.726 0.222,-1.327 0.667,-1.805c0.445,-0.478 0.994,-0.717 1.649,-0.717c0.625,0 1.148,0.219 1.568,0.656c0.421,0.438 0.632,0.996 0.632,1.675c0,0.726 -0.222,1.328 -0.667,1.806Zm0.305,22.355c0,1.926 -0.558,3.389 -1.673,4.391c-1.116,1 -2.476,1.501 -4.08,1.501c-1.331,0 -2.416,-0.332 -3.256,-0.997c-0.841,-0.665 -1.445,-1.426 -1.811,-2.282l1.926,-0.801c0.214,0.61 0.607,1.123 1.181,1.535c0.572,0.413 1.225,0.619 1.96,0.619c1.161,0 2.074,-0.348 2.739,-1.043c0.665,-0.695 0.997,-1.639 0.997,-2.831l0,-1.077l-0.092,0c-0.367,0.55 -0.887,1.008 -1.559,1.375c-0.672,0.367 -1.429,0.55 -2.269,0.55c-1.452,0 -2.705,-0.573 -3.76,-1.719c-1.055,-1.147 -1.582,-2.568 -1.582,-4.264c0,-1.696 0.527,-3.118 1.582,-4.265c1.055,-1.145 2.308,-1.718 3.76,-1.718c0.84,0 1.597,0.183 2.269,0.549c0.672,0.368 1.192,0.826 1.559,1.376l0.092,0l0,-1.559l2.017,0l0,10.66Zm-13.024,-23.519c-0.111,0 -0.19,-0.002 -0.237,-0.007c0,0.445 0.013,1.031 0.039,1.759l-0.997,0c0.03,-0.683 0.046,-1.488 0.046,-2.415c0,-0.852 -0.016,-1.586 -0.046,-2.203l0.617,0c0.087,0 0.255,-0.004 0.504,-0.011c0.248,-0.007 0.463,-0.011 0.645,-0.011c0.45,0 0.829,0.102 1.139,0.305c0.31,0.204 0.465,0.513 0.465,0.926c0,0.566 -0.21,0.983 -0.63,1.253c-0.419,0.269 -0.935,0.404 -1.545,0.404Zm-0.593,22.751c-1.086,1.139 -2.47,1.708 -4.149,1.708c-1.683,0 -3.065,-0.569 -4.15,-1.708c-1.085,-1.138 -1.628,-2.563 -1.628,-4.275c0,-1.712 0.543,-3.137 1.628,-4.275c1.085,-1.139 2.467,-1.708 4.15,-1.708c1.679,0 3.063,0.569 4.149,1.708c1.085,1.138 1.627,2.563 1.627,4.275c0,1.712 -0.542,3.137 -1.627,4.275Zm-12.264,0c-1.086,1.139 -2.469,1.708 -4.15,1.708c-1.681,0 -3.064,-0.569 -4.149,-1.708c-1.085,-1.138 -1.628,-2.563 -1.628,-4.275c0,-1.712 0.543,-3.137 1.628,-4.275c1.085,-1.139 2.468,-1.708 4.149,-1.708c1.681,0 3.064,0.569 4.15,1.708c1.085,1.138 1.627,2.563 1.627,4.275c0,1.712 -0.542,3.137 -1.627,4.275Zm-10.945,-22.84c0,0.608 0.011,1.222 0.032,1.841l-0.986,0c0.031,-0.714 0.046,-1.519 0.046,-2.415c0,-0.861 -0.015,-1.596 -0.046,-2.203l0.614,0c0.071,0 0.219,-0.004 0.445,-0.011c0.226,-0.007 0.434,-0.011 0.626,-0.011c1.085,0 1.628,0.372 1.628,1.114c0,0.589 -0.31,0.999 -0.929,1.231l0,0.053c0.239,0.067 0.448,0.253 0.628,0.559c0.179,0.306 0.422,0.867 0.727,1.683l-1.05,0c-0.275,-0.837 -0.485,-1.353 -0.632,-1.55c-0.146,-0.196 -0.383,-0.294 -0.709,-0.294c-0.137,0 -0.269,0.001 -0.394,0.003Zm-1.893,22.118c-1.544,1.62 -3.554,2.43 -6.03,2.43c-2.369,0 -4.382,-0.821 -6.04,-2.464c-1.659,-1.643 -2.487,-3.68 -2.487,-6.11c0,-2.429 0.828,-4.466 2.487,-6.109c1.658,-1.643 3.671,-2.464 6.04,-2.464c1.177,0 2.3,0.229 3.371,0.688c1.069,0.458 1.925,1.07 2.567,1.834l-1.444,1.444c-1.085,-1.299 -2.583,-1.949 -4.494,-1.949c-1.727,0 -3.22,0.607 -4.481,1.823c-1.261,1.215 -1.892,2.793 -1.892,4.733c0,1.942 0.631,3.519 1.892,4.735c1.261,1.214 2.754,1.822 4.481,1.822c1.834,0 3.363,-0.611 4.585,-1.834c0.795,-0.795 1.253,-1.903 1.375,-3.324l-5.96,0l0,-1.972l7.955,0c0.077,0.429 0.115,0.841 0.115,1.238c0,2.292 -0.68,4.119 -2.04,5.479Zm-21.223,-4.96c-0.312,0.23 -0.656,0.42 -0.997,0.608c-2.023,1.119 -4.051,2.226 -6.07,3.352c-0.272,0.152 -0.434,0.145 -0.659,-0.088c-1.437,-1.484 -2.887,-2.956 -4.345,-4.42c-0.212,-0.213 -0.218,-0.33 0,-0.544c1.698,-1.673 3.387,-3.355 5.069,-5.045c0.198,-0.2 0.34,-0.222 0.587,-0.082c1.998,1.132 4.006,2.249 6.009,3.372c0.62,0.347 1.102,0.796 1.129,1.531c-0.022,0.59 -0.301,1.005 -0.723,1.316Zm-8.718,4.867c-6.691,3.662 -13.376,7.335 -20.062,11.005c-0.11,0.062 -0.213,0.161 -0.27,0.197c5.212,-5.268 10.427,-10.532 15.627,-15.812c0.322,-0.328 0.473,-0.284 0.762,0.017c1.321,1.375 2.661,2.732 4.007,4.082c0.237,0.238 0.257,0.335 -0.064,0.511Zm-23.126,11.39c-0.601,-0.463 -0.831,-1.081 -0.83,-1.818c0.001,-3.105 -0.005,-6.21 -0.007,-9.315c-0.001,-2.196 0,-4.391 0,-6.586l0.009,0c0,-5.243 0.002,-10.486 -0.003,-15.728c0,-0.643 0.125,-1.231 0.581,-1.717c0.177,-0.189 0.304,-0.239 0.522,-0.018c3.527,3.6 7.063,7.191 10.599,10.783c2.289,2.326 4.577,4.653 6.876,6.97c0.223,0.224 0.243,0.343 0.007,0.578c-5.623,5.59 -11.241,11.186 -16.843,16.796c-0.343,0.344 -0.583,0.307 -0.911,0.055Zm2.21,-35.478c7.18,4.023 14.359,8.048 21.544,12.063c0.33,0.184 0.323,0.287 0.068,0.538c-1.606,1.58 -3.199,3.173 -4.791,4.767c-0.172,0.172 -0.276,0.271 -0.507,0.036c-5.712,-5.826 -11.433,-11.643 -17.152,-17.462c-0.048,-0.049 -0.088,-0.106 -0.185,-0.226c0.429,-0.004 0.731,0.12 1.023,0.284Zm37.408,1.634c0.552,-1.421 0.828,-2.204 0.828,-2.348l1.341,0c0,0.134 0.25,0.906 0.751,2.314c0.5,1.409 0.75,2.177 0.75,2.304l-1.135,0c0,-0.156 -0.108,-0.598 -0.323,-1.326l-1.639,0c-0.222,0.716 -0.333,1.159 -0.333,1.326l-1.068,0c0,-0.092 0.276,-0.849 0.828,-2.27Zm4.438,-2.348l1.053,0c0,0.125 0.292,0.625 0.877,1.5c0.622,0.93 0.979,1.56 1.071,1.891l0.053,0c-0.057,-0.527 -0.085,-1 -0.085,-1.419c0,-0.641 -0.017,-1.298 -0.05,-1.972l0.887,0c-0.033,0.586 -0.05,1.321 -0.05,2.203c0,0.889 0.017,1.694 0.05,2.415l-0.876,0c0,-0.097 -0.325,-0.608 -0.976,-1.536c-0.681,-0.976 -1.069,-1.644 -1.163,-2.004l-0.057,0c0.059,0.518 0.089,0.986 0.089,1.405c0,0.584 0.016,1.296 0.049,2.135l-0.872,0c0.035,-0.733 0.053,-1.538 0.053,-2.415c0,-0.864 -0.018,-1.598 -0.053,-2.203Zm5.046,0l0.621,0c0.101,0 0.253,-0.004 0.454,-0.011c0.2,-0.007 0.332,-0.011 0.393,-0.011c0.854,0 1.473,0.213 1.857,0.639c0.385,0.426 0.577,0.936 0.577,1.532c0,0.672 -0.215,1.259 -0.646,1.76c-0.43,0.501 -1.033,0.752 -1.809,0.752c-0.35,0 -0.832,-0.014 -1.447,-0.043c0.03,-0.714 0.046,-1.519 0.046,-2.415c0,-0.861 -0.016,-1.596 -0.046,-2.203Zm9.879,0.61c0.445,-0.478 0.994,-0.717 1.65,-0.717c0.624,0 1.147,0.219 1.568,0.656c0.42,0.438 0.631,0.996 0.631,1.675c0,0.726 -0.222,1.328 -0.667,1.806c-0.445,0.477 -0.994,0.716 -1.649,0.716c-0.625,0 -1.148,-0.219 -1.568,-0.658c-0.421,-0.439 -0.632,-0.996 -0.632,-1.673c0,-0.726 0.222,-1.327 0.667,-1.805Zm4.851,-0.61l1.004,0c-0.031,0.596 -0.046,1.33 -0.046,2.203c0,0.891 0.015,1.697 0.046,2.415l-1.004,0c0.031,-0.733 0.046,-1.538 0.046,-2.415c0,-0.864 -0.015,-1.598 -0.046,-2.203Zm2.243,0l0.621,0c0.102,0 0.253,-0.004 0.454,-0.011c0.201,-0.007 0.333,-0.011 0.394,-0.011c0.854,0 1.473,0.213 1.857,0.639c0.384,0.426 0.577,0.936 0.577,1.532c0,0.672 -0.216,1.259 -0.646,1.76c-0.43,0.501 -1.034,0.752 -1.809,0.752c-0.35,0 -0.833,-0.014 -1.448,-0.043c0.031,-0.714 0.047,-1.519 0.047,-2.415c0,-0.861 -0.016,-1.596 -0.047,-2.203Zm7.054,2.348c0.552,-1.421 0.828,-2.204 0.828,-2.348l1.341,0c0,0.134 0.25,0.906 0.75,2.314c0.5,1.409 0.75,2.177 0.75,2.304l-1.134,0c0,-0.156 -0.108,-0.598 -0.323,-1.326l-1.639,0c-0.223,0.716 -0.335,1.159 -0.335,1.326l-1.066,0c0,-0.092 0.276,-0.849 0.828,-2.27Zm8.693,-2.348l0.617,0c0.087,0 0.255,-0.004 0.503,-0.011c0.249,-0.007 0.464,-0.011 0.646,-0.011c0.449,0 0.829,0.102 1.139,0.305c0.31,0.204 0.465,0.513 0.465,0.926c0,0.566 -0.21,0.983 -0.63,1.253c-0.42,0.269 -0.935,0.404 -1.545,0.404c-0.111,0 -0.19,-0.002 -0.238,-0.007c0,0.445 0.013,1.031 0.039,1.759l-0.996,0c0.03,-0.683 0.046,-1.488 0.046,-2.415c0,-0.852 -0.016,-1.586 -0.046,-2.203Zm67.115,-11.093l-153.977,0c-4.123,0 -7.467,3.344 -7.467,7.467l0,40.318c0,4.123 3.344,7.467 7.467,7.467l153.977,0c4.123,0 7.465,-3.344 7.465,-7.467l0,-40.318c0,-4.123 -3.342,-7.467 -7.465,-7.467Z" style="fill:#58595b;fill-rule:nonzero;"/></svg>